<svg width="25" height="25" viewBox="0 0 25 25" fill="none" xmlns="http://www.w3.org/2000/svg">
<path d="M17.4088 0.941406C15.9866 1.11177 14.6827 1.81765 13.7626 2.91541C12.9676 3.88269 12.3136 5.31969 12.5686 6.71641C13.2837 6.70021 13.986 6.5228 14.6231 6.19741C15.2601 5.87202 15.8155 5.40703 16.2478 4.83712C16.6891 4.29668 17.019 3.67413 17.2182 3.00546C17.4175 2.33679 17.4823 1.63526 17.4088 0.941406Z" fill="#FDFDFD"/>
<path d="M22.4651 8.99288C21.2368 7.45259 19.5101 6.55859 17.8794 6.55859C15.7271 6.55859 14.8164 7.58716 13.3211 7.58716C11.7782 7.58716 10.6078 6.55859 8.74607 6.55859C6.91779 6.55859 4.97079 7.67588 3.73607 9.58688C2.00079 12.2779 2.29779 17.3372 5.11007 21.6469C6.11636 23.1897 7.46036 24.9229 9.21836 24.9379C10.7826 24.9529 11.2236 23.9346 13.3434 23.9239C15.4631 23.9132 15.8646 24.9524 17.4264 24.9349C19.1856 24.9216 20.6034 22.9999 21.6096 21.4579C22.2176 20.5394 22.7364 19.565 23.1589 18.5479C19.0901 17.0016 18.4378 11.2129 22.4651 8.99288Z" fill="#FDFDFD"/>
</svg>
