<svg width="24" height="25" viewBox="0 0 24 25" fill="none" xmlns="http://www.w3.org/2000/svg">
<path d="M16.4989 0.25C15.0767 0.42036 13.7728 1.12625 12.8526 2.224C12.0576 3.19129 11.4036 4.62829 11.6586 6.025C12.3738 6.0088 13.0761 5.83139 13.7131 5.506C14.3502 5.18061 14.9056 4.71563 15.3379 4.14571C15.7792 3.60527 16.1091 2.98272 16.3083 2.31406C16.5076 1.64539 16.5724 0.943854 16.4989 0.25Z" fill="#FDFDFD"/>
<path d="M21.5552 8.30147C20.3269 6.76119 18.6002 5.86719 16.9695 5.86719C14.8172 5.86719 13.9065 6.89576 12.4112 6.89576C10.8684 6.89576 9.69794 5.86719 7.83622 5.86719C6.00794 5.86719 4.06094 6.98447 2.82622 8.89547C1.09094 11.5865 1.38794 16.6458 4.20022 20.9555C5.20651 22.4983 6.55051 24.2315 8.30851 24.2465C9.87279 24.2615 10.3138 23.2432 12.4335 23.2325C14.5532 23.2218 14.9548 24.261 16.5165 24.2435C18.2758 24.2302 19.6935 22.3085 20.6998 20.7665C21.3077 19.848 21.8265 18.8736 22.2491 17.8565C18.1802 16.3102 17.5279 10.5215 21.5552 8.30147Z" fill="#FDFDFD"/>
</svg>
