<svg width="16" height="16" viewBox="0 0 16 16" fill="none" xmlns="http://www.w3.org/2000/svg">
<path d="M4.66669 14H3.60002C3.17567 14 2.76871 13.8314 2.46865 13.5314C2.16859 13.2313 2.00002 12.8243 2.00002 12.4V11.3333M11.3334 14H12.4C12.8244 14 13.2313 13.8314 13.5314 13.5314C13.8314 13.2313 14 12.8243 14 12.4V11.3333M14 4.66667V3.6C14 3.17565 13.8314 2.76869 13.5314 2.46863C13.2313 2.16857 12.8244 2 12.4 2H11.3334M4.66669 2H3.60002C3.38991 2 3.18185 2.04139 2.98773 2.12179C2.79361 2.2022 2.61722 2.32006 2.46865 2.46863C2.32008 2.6172 2.20222 2.79359 2.12181 2.98771C2.04141 3.18183 2.00002 3.38989 2.00002 3.6V4.66667M0.666687 8H15.3334" stroke="#242323" stroke-width="1.2" stroke-miterlimit="10" stroke-linecap="round" stroke-linejoin="round"/>
</svg>
