<svg width="64" height="64" viewBox="0 0 64 64" fill="none" xmlns="http://www.w3.org/2000/svg">
<path d="M35.0453 9.59457V15.7812L33.5838 15.0506L32.5759 14.5492V14.5439L29.9573 13.2372L24.3787 10.4479V4.26123L29.5092 6.82657L30.2719 7.21057L35.0453 9.59457Z" stroke="#377996" stroke-width="1.2" stroke-linecap="round" stroke-linejoin="round"/>
<path d="M30.2987 46.3465L25.5521 51.2959L14.8854 45.9625L19.6321 41.0132L26.256 44.3252L30.2987 46.3465Z" stroke="#377996" stroke-width="1.2" stroke-linecap="round" stroke-linejoin="round"/>
<path d="M49.5467 36.7094C49.5467 40.1921 48.6454 43.3601 46.8481 46.2134C45.0561 49.0668 42.8321 51.4774 40.1761 53.4508V59.6322L35.0455 62.5975V56.2668C32.7788 56.9868 30.8215 56.9868 29.1788 56.2722L28.7735 56.0695C28.4108 55.8668 28.0694 55.6162 27.7547 55.3122C26.8107 54.4162 26.0801 53.0774 25.5521 51.2961L30.2987 46.3468C30.4001 46.6614 30.5068 46.9548 30.6295 47.2321C31.2481 48.7041 32.0908 49.6534 33.1521 50.0694C34.4161 50.5708 36.0747 50.2295 38.128 49.0401C39.8774 48.0322 41.3654 46.7201 42.5814 45.1041C43.8027 43.4934 44.4107 41.7334 44.4107 39.8188C44.4107 38.1014 43.9414 37.0081 43.0027 36.5494C42.2241 36.1654 40.6027 36.1814 38.1334 36.5868C37.6107 36.6774 37.0561 36.7788 36.4587 36.9014C35.2587 37.1628 34.1867 37.3228 33.2321 37.3868C31.4934 37.5041 30.1601 37.2961 29.2374 36.7521L29.1947 36.7308C29.088 36.6668 28.9815 36.5974 28.8855 36.5228C27.5895 35.5254 26.9067 33.8028 26.8427 31.3654C26.8374 31.2374 26.8374 31.1094 26.8374 30.9761C26.8374 28.8748 27.2267 26.8588 28.0054 24.9281C28.4107 23.9254 28.9174 22.9441 29.5307 21.9841C31.1361 19.4774 32.7681 17.5628 34.4427 16.2348C34.6454 16.0748 34.8428 15.9254 35.0455 15.7814V9.59477L36.7735 8.59743L37.2374 8.33077L40.1761 6.63477V12.8161C42.3147 11.9734 44.08 11.8508 45.472 12.4481C46.8587 13.0454 47.8774 14.1654 48.5174 15.8081L43.7707 20.9014C43.2587 19.6268 42.528 18.8694 41.5894 18.6294C41.04 18.4854 40.3734 18.5441 39.5894 18.8108C39.0294 18.9974 38.416 19.2854 37.7387 19.6748C35.8614 20.7574 34.4268 22.0641 33.4401 23.5894C33.3281 23.7601 33.2267 23.9308 33.1307 24.1014C32.3574 25.4454 31.9681 26.7468 31.9681 28.0108C31.9681 29.6321 32.608 30.5334 33.8934 30.7254C34.928 30.8801 36.5707 30.7148 38.8321 30.2294C39.3761 30.1121 39.9521 29.9734 40.5654 29.8188C43.0027 29.2214 44.9494 29.3014 46.4107 30.0588C46.72 30.2188 47.0081 30.4054 47.2694 30.6241C48.7841 31.8828 49.5467 33.9094 49.5467 36.7094Z" fill="#95D7F3" stroke="#377996" stroke-width="1.2" stroke-linecap="round" stroke-linejoin="round"/>
<path d="M28.7735 56.0691L27.5254 55.4451L24.3788 53.8718L18.5121 50.9384C16.8641 50.2184 15.6534 48.5597 14.8854 45.9624L25.5521 51.2957C26.0801 53.0771 26.8107 54.4158 27.7547 55.3118C28.0694 55.6158 28.4108 55.8665 28.7735 56.0691Z" stroke="#377996" stroke-width="1.2" stroke-linecap="round" stroke-linejoin="round"/>
<path d="M35.0453 56.2667V62.5974L24.3787 57.2641V53.8721L27.5253 55.4454L28.7733 56.0694L29.1787 56.2721C30.8213 56.9867 32.7787 56.9867 35.0453 56.2667Z" stroke="#377996" stroke-width="1.2" stroke-linecap="round" stroke-linejoin="round"/>
<path d="M46.4108 30.0584C44.9495 29.3011 43.0028 29.2211 40.5655 29.8184C39.9521 29.9731 39.3761 30.1117 38.8321 30.2291C36.5708 30.7144 34.9281 30.8797 33.8935 30.7251C32.6081 30.5331 31.9682 29.6317 31.9682 28.0104C31.9682 26.7464 32.3575 25.4451 33.1309 24.1011C34.1495 24.1277 35.0402 24.3464 35.7922 24.7517L35.8242 24.7677L46.4108 30.0584Z" stroke="#377996" stroke-width="1.2" stroke-linecap="round" stroke-linejoin="round"/>
<path d="M40.1759 6.63458L37.2372 8.33058L36.7733 8.59725L35.0453 9.59458L30.2719 7.21058L29.5092 6.82658L24.3787 4.26126L29.5092 1.30127L40.1759 6.63458Z" stroke="#377996" stroke-width="1.2" stroke-linecap="round" stroke-linejoin="round"/>
<path d="M45.472 12.4481C44.08 11.8507 42.3147 11.9734 40.176 12.8161V9.80273L45.472 12.4481Z" stroke="#377996" stroke-width="1.2" stroke-linecap="round" stroke-linejoin="round"/>
<path d="M43.7712 20.9012L39.5898 18.8105" stroke="#377996" stroke-width="1.2" stroke-linecap="round" stroke-linejoin="round"/>
<path d="M35.0456 15.7811C34.8429 15.9251 34.6455 16.0744 34.4428 16.2344C32.7682 17.5624 31.1362 19.4771 29.5309 21.9838C28.9176 22.9438 28.4108 23.9251 28.0055 24.9278C27.2268 26.8584 26.8375 28.8744 26.8375 30.9758C26.8375 31.1091 26.8375 31.2371 26.8428 31.3651C26.9068 33.8024 27.5896 35.5251 28.8856 36.5224C28.9816 36.5971 29.0881 36.6664 29.1948 36.7304L19.0561 31.6531L19.0082 31.6318C18.7096 31.5144 18.4482 31.3651 18.2189 31.1891C16.8536 30.1384 16.1708 28.2878 16.1708 25.6424C16.1708 22.4531 17.0669 19.4558 18.8642 16.6504C20.6616 13.8451 22.4962 11.7811 24.3789 10.4478L29.9576 13.2371L32.5762 14.5438L33.5841 15.0504L35.0456 15.7811Z" stroke="#377996" stroke-width="1.2" stroke-linecap="round" stroke-linejoin="round"/>
<path d="M44.411 39.8185C44.411 41.7332 43.803 43.4932 42.5817 45.1038C41.3657 46.7198 39.8776 48.0318 38.1283 49.0398C36.075 50.2292 34.4163 50.5705 33.1523 50.0692C32.091 49.6532 31.2484 48.7038 30.6297 47.2318C30.5071 46.9545 30.4003 46.6612 30.299 46.3465L26.2563 44.3252C26.6403 44.1545 27.0456 43.9465 27.4616 43.7065C29.211 42.6985 30.699 41.3865 31.915 39.7705C32.4963 39.0078 32.9336 38.2132 33.2323 37.3865C34.187 37.3225 35.259 37.1625 36.459 36.9012C37.0563 36.7785 37.611 36.6772 38.1336 36.5865C40.603 36.1812 42.2243 36.1652 43.003 36.5492C43.9417 37.0078 44.411 38.1012 44.411 39.8185Z" stroke="#377996" stroke-width="1.2" stroke-linecap="round" stroke-linejoin="round"/>
</svg>
