<svg width="48" height="48" viewBox="0 0 48 48" fill="none" xmlns="http://www.w3.org/2000/svg">
<path d="M42.0823 29.0789L25.6663 42.1578L16.5234 46.729L23.024 41.5498L32.9394 33.6504C33.5017 33.2161 33.6114 32.4572 33.264 31.3784C32.912 30.2995 32.304 29.5087 31.44 29.0104L23.7097 24.5441L32.8526 19.9727L40.5829 24.4389C41.4469 24.9372 42.0549 25.7281 42.4069 26.8069C42.7543 27.8858 42.6446 28.6447 42.0823 29.0789Z" fill="#FDFDFD" stroke="#325310" stroke-linecap="round" stroke-linejoin="round"/>
<path d="M25.6663 42.158C25.5246 42.2677 25.3737 42.3454 25.2092 42.3865L25.6663 42.158Z" stroke="#325310" stroke-linecap="round" stroke-linejoin="round"/>
<path d="M32.9394 33.6504L23.024 41.5498L16.5234 46.729C16.1577 47.017 15.7097 47.081 15.1794 46.9256C14.6446 46.7702 14.1326 46.4182 13.6297 45.8605C13.1314 45.3075 12.7429 44.6721 12.4594 43.9544C12.176 43.2366 12.0663 42.5738 12.1348 41.9658L13.7303 30.2355L7.54514 26.6652C6.74514 26.2035 6.15543 25.4492 5.77601 24.4115C5.39201 23.3692 5.43313 22.6012 5.89942 22.1075L20.816 6.10293C20.8983 6.01607 20.9851 5.9475 21.0811 5.88807L21.1132 5.86978L21.2503 5.80578C21.4971 5.69607 21.7852 5.67778 22.1143 5.73721C22.6446 5.83321 23.1931 6.15778 23.76 6.7155C24.0068 6.95778 24.2217 7.21378 24.4092 7.48807C24.656 7.84007 24.8572 8.22407 25.008 8.6355C25.2732 9.36235 25.3737 10.0298 25.3051 10.6424L23.7097 24.5441L31.44 29.0104C32.304 29.5086 32.912 30.2995 33.264 31.3784C33.6114 32.4572 33.5017 33.2161 32.9394 33.6504Z" fill="#AFE274" stroke="#325310" stroke-linecap="round" stroke-linejoin="round"/>
<path d="M34.448 6.0711L32.8525 19.9728L23.7097 24.5442L25.3051 10.6425C25.3737 10.03 25.2731 9.36253 25.008 8.63567C24.8571 8.22424 24.656 7.84024 24.4091 7.48824C24.2217 7.21395 24.0068 6.95795 23.76 6.71567C23.1931 6.15795 22.6445 5.83338 22.1142 5.73738C21.7851 5.67795 21.4971 5.69624 21.2502 5.80595L30.2742 1.2894C30.5531 1.13397 30.8777 1.09283 31.2571 1.16597C31.7874 1.26197 32.336 1.58654 32.9028 2.14425C33.4651 2.6974 33.8811 3.3374 34.1508 4.06425C34.416 4.7911 34.5165 5.45853 34.448 6.0711Z" fill="#FDFDFD" stroke="#325310" stroke-linecap="round" stroke-linejoin="round"/>
<path d="M30.3245 1.26196L30.2742 1.28939" stroke="#325310" stroke-linecap="round" stroke-linejoin="round"/>
</svg>
