<svg width="48" height="48" viewBox="0 0 48 48" fill="none" xmlns="http://www.w3.org/2000/svg">
<path d="M33.9561 5.97609L28.1001 6.83605L20.3881 14.608L17.6281 17.3881L14.2441 20.8001V32.9241C14.2441 37.1841 15.1801 40.5841 17.0601 43.1121C17.3921 43.5681 17.7641 44.0001 18.1641 44.4001C18.8281 45.0641 19.5361 45.6081 20.2921 46.0281C22.5041 47.2641 25.1081 47.4521 28.1001 46.5881C32.1121 43.1121 35.4281 38.5561 38.0401 32.9241C40.6521 27.2921 41.9561 21.9561 41.9561 16.9241V4.80005L33.9561 5.97609ZM33.2961 31.6601L26.1401 35.7921L22.9041 37.6601V27.7241L24.6361 26.7241V24.7361C24.6361 23.8601 24.8561 22.9561 25.2961 22.0281C25.4001 21.8001 25.5201 21.572 25.6561 21.34C25.9041 20.908 26.1761 20.5201 26.4641 20.1721C26.6681 19.9241 26.8841 19.6961 27.1081 19.4961C27.4201 19.2081 27.7521 18.9641 28.1001 18.7601C29.0521 18.2121 29.8681 18.1281 30.5481 18.5161C31.2281 18.9041 31.5641 19.6441 31.5641 20.7361V22.7241L32.5921 22.1321L33.2961 21.7241V31.6601Z" stroke="#325310" stroke-width="1.2" stroke-linecap="round" stroke-linejoin="round"/>
<path d="M33.2961 31.6599L26.1401 35.7919L22.9041 37.6599V29.0399L25.2961 27.6599L29.6161 29.8199L33.2961 31.6599Z" stroke="#325310" stroke-width="1.2" stroke-linecap="round" stroke-linejoin="round"/>
<path d="M33.2961 21.7241V31.6601L29.6161 29.8201L25.2961 27.6601V25.1881L26.3681 25.7241L29.8321 23.7241V21.8601L31.5641 22.7241L32.5921 22.1321L33.2961 21.7241Z" stroke="#325310" stroke-width="1.2" stroke-linecap="round" stroke-linejoin="round"/>
<path d="M31.5641 20.7359V22.7239L29.8321 21.8599V21.7359C29.8321 21.1719 29.6681 20.7959 29.3361 20.6079L29.2361 20.5599L27.1081 19.4959C27.4201 19.2079 27.7521 18.9639 28.1001 18.7599C29.0521 18.2119 29.8681 18.1279 30.5481 18.5159C31.2281 18.9039 31.5641 19.6439 31.5641 20.7359Z" stroke="#325310" stroke-width="1.2" stroke-linecap="round" stroke-linejoin="round"/>
<path d="M29.2361 20.5601C28.9201 20.4321 28.5441 20.4921 28.1001 20.7481C28.0281 20.7921 27.9561 20.8361 27.8881 20.8841C27.4921 21.1641 27.1521 21.5441 26.8681 22.0321C26.5361 22.6041 26.3681 23.1721 26.3681 23.7361V25.7241L25.2961 25.1881L24.6361 24.8601V24.7361C24.6361 23.8601 24.8561 22.9561 25.2961 22.0281C25.4001 21.8001 25.5201 21.5721 25.6561 21.3401C25.9041 20.9081 26.1761 20.5201 26.4641 20.1721C26.6681 19.9241 26.8841 19.6961 27.1081 19.4961L29.2361 20.5601Z" stroke="#325310" stroke-width="1.2" stroke-linecap="round" stroke-linejoin="round"/>
<path d="M29.8322 21.7359V23.7239L26.3682 25.7239V23.7359C26.3682 23.1719 26.5362 22.6039 26.8682 22.0319C27.1522 21.5439 27.4922 21.1639 27.8882 20.8839C27.9562 20.8359 28.0282 20.7919 28.1002 20.7479C28.5442 20.4919 28.9202 20.4319 29.2362 20.5599L29.3362 20.6079C29.6682 20.7959 29.8322 21.1719 29.8322 21.7359Z" stroke="#325310" stroke-width="1.2" stroke-linecap="round" stroke-linejoin="round"/>
<path d="M28.1002 6.83595L20.3882 14.608L17.6282 17.3879L14.2442 20.7999L6.24414 16.7999L20.1002 2.83594L28.1002 6.83595Z" fill="#AFE274" stroke="#325310" stroke-width="1.2" stroke-linecap="round" stroke-linejoin="round"/>
<path d="M20.2922 46.028L13.1362 42.44L13.1082 42.428C12.7802 42.288 12.4642 42.128 12.1522 41.944C11.4482 41.54 10.7882 41.024 10.1642 40.4C7.55214 37.784 6.24414 33.9561 6.24414 28.9241V16.8L14.2442 20.8V32.9241C14.2442 37.1841 15.1802 40.584 17.0602 43.112C17.3922 43.568 17.7642 44 18.1642 44.4C18.8282 45.064 19.5362 45.608 20.2922 46.028Z" fill="#AFE274" stroke="#325310" stroke-width="1.2" stroke-linecap="round" stroke-linejoin="round"/>
<path d="M41.9561 4.80005L33.9561 5.97609L28.1001 6.83605L20.1001 2.83604L33.9561 0.800049L41.9561 4.80005Z" fill="#AFE274" stroke="#325310" stroke-width="1.2" stroke-linecap="round" stroke-linejoin="round"/>
</svg>
