<svg width="32" height="33" viewBox="0 0 32 33" fill="none" xmlns="http://www.w3.org/2000/svg">
<rect x="0.25" y="0.421875" width="31.5" height="31.5" rx="15.75" fill="#242323"/>
<rect x="0.25" y="0.421875" width="31.5" height="31.5" rx="15.75" stroke="#EBEBEB" stroke-width="0.5"/>
<g clip-path="url(#clip0_1_1859)">
<path fill-rule="evenodd" clip-rule="evenodd" d="M13.6304 9.83292C14.3578 9.79943 14.5898 9.79199 16.4428 9.79199C18.2958 9.79199 18.5278 9.80005 19.2546 9.83292C19.9814 9.86579 20.4775 9.98176 20.9116 10.1498C21.3662 10.3216 21.7786 10.5901 22.1197 10.9374C22.467 11.2779 22.7349 11.6897 22.9061 12.1449C23.0747 12.579 23.1901 13.0751 23.2236 13.8007C23.2571 14.5294 23.2645 14.7613 23.2645 16.6137C23.2645 18.4667 23.2564 18.6987 23.2236 19.4261C23.1907 20.1517 23.0747 20.6478 22.9061 21.0819C22.7349 21.5372 22.4665 21.9496 22.1197 22.2906C21.7786 22.6379 21.3662 22.9058 20.9116 23.077C20.4775 23.2456 19.9814 23.361 19.2558 23.3945C18.5278 23.428 18.2958 23.4354 16.4428 23.4354C14.5898 23.4354 14.3578 23.4273 13.6304 23.3945C12.9048 23.3616 12.4087 23.2456 11.9746 23.077C11.5193 22.9058 11.1069 22.6374 10.7659 22.2906C10.4188 21.9499 10.1503 21.5377 9.97892 21.0825C9.81086 20.6484 9.69551 20.1523 9.66202 19.4267C9.62854 18.698 9.62109 18.4661 9.62109 16.6137C9.62109 14.7607 9.62916 14.5287 9.66202 13.8019C9.69489 13.0751 9.81086 12.579 9.97892 12.1449C10.1505 11.6897 10.4193 11.2775 10.7665 10.9368C11.107 10.5898 11.5191 10.3213 11.974 10.1498C12.4081 9.98176 12.9042 9.86641 13.6298 9.83292H13.6304ZM19.1994 11.0608C18.48 11.028 18.2642 11.0211 16.4428 11.0211C14.6214 11.0211 14.4056 11.028 13.6862 11.0608C13.0208 11.0912 12.6599 11.2022 12.4192 11.2959C12.1011 11.4199 11.8735 11.5669 11.6347 11.8056C11.4084 12.0258 11.2342 12.2939 11.125 12.5901C11.0313 12.8308 10.9203 13.1917 10.8899 13.8571C10.8571 14.5765 10.8502 14.7923 10.8502 16.6137C10.8502 18.4351 10.8571 18.6509 10.8899 19.3703C10.9203 20.0357 11.0313 20.3966 11.125 20.6373C11.2341 20.9331 11.4084 21.2016 11.6347 21.4218C11.8549 21.6481 12.1234 21.8224 12.4192 21.9315C12.6599 22.0252 13.0208 22.1362 13.6862 22.1666C14.4056 22.1994 14.6208 22.2063 16.4428 22.2063C18.2648 22.2063 18.48 22.1994 19.1994 22.1666C19.8648 22.1362 20.2257 22.0252 20.4664 21.9315C20.7845 21.8075 21.0121 21.6605 21.2509 21.4218C21.4772 21.2016 21.6515 20.9331 21.7606 20.6373C21.8543 20.3966 21.9653 20.0357 21.9957 19.3703C22.0285 18.6509 22.0354 18.4351 22.0354 16.6137C22.0354 14.7923 22.0285 14.5765 21.9957 13.8571C21.9653 13.1917 21.8543 12.8308 21.7606 12.5901C21.6366 12.272 21.4896 12.0444 21.2509 11.8056C21.0307 11.5793 20.7626 11.4051 20.4664 11.2959C20.2257 11.2022 19.8648 11.0912 19.1994 11.0608ZM15.5715 18.7166C16.0581 18.9192 16.5999 18.9465 17.1045 18.794C17.609 18.6414 18.0449 18.3185 18.3378 17.8802C18.6306 17.442 18.7622 16.9156 18.7101 16.3911C18.658 15.8666 18.4254 15.3765 18.0521 15.0044C17.8141 14.7666 17.5263 14.5844 17.2095 14.4712C16.8927 14.3579 16.5547 14.3162 16.2199 14.3493C15.885 14.3823 15.5617 14.4892 15.2731 14.6622C14.9845 14.8351 14.7378 15.07 14.5509 15.3497C14.364 15.6295 14.2414 15.9472 14.192 16.28C14.1425 16.6128 14.1675 16.9525 14.2651 17.2745C14.3628 17.5965 14.5305 17.8928 14.7564 18.1422C14.9823 18.3916 15.2607 18.5878 15.5715 18.7166ZM13.9634 14.1343C14.289 13.8087 14.6756 13.5504 15.101 13.3742C15.5264 13.198 15.9823 13.1073 16.4428 13.1073C16.9033 13.1073 17.3592 13.198 17.7846 13.3742C18.21 13.5504 18.5966 13.8087 18.9222 14.1343C19.2478 14.4599 19.5061 14.8465 19.6823 15.2719C19.8585 15.6973 19.9492 16.1532 19.9492 16.6137C19.9492 17.0742 19.8585 17.5301 19.6823 17.9555C19.5061 18.3809 19.2478 18.7675 18.9222 19.0931C18.2646 19.7506 17.3727 20.1201 16.4428 20.1201C15.5129 20.1201 14.621 19.7506 13.9634 19.0931C13.3058 18.4355 12.9364 17.5436 12.9364 16.6137C12.9364 15.6837 13.3058 14.7919 13.9634 14.1343ZM20.7268 13.6295C20.8075 13.5534 20.8721 13.4619 20.9168 13.3603C20.9615 13.2588 20.9853 13.1494 20.9869 13.0385C20.9886 12.9276 20.9679 12.8174 20.9262 12.7147C20.8845 12.6119 20.8226 12.5185 20.7442 12.4401C20.6657 12.3616 20.5724 12.2997 20.4696 12.258C20.3668 12.2164 20.2567 12.1957 20.1458 12.1973C20.0349 12.1989 19.9254 12.2228 19.8239 12.2675C19.7224 12.3121 19.6308 12.3767 19.5547 12.4574C19.4067 12.6143 19.3257 12.8228 19.3288 13.0385C19.332 13.2542 19.419 13.4601 19.5716 13.6127C19.7241 13.7652 19.9301 13.8523 20.1458 13.8554C20.3615 13.8586 20.5699 13.7775 20.7268 13.6295Z" fill="#FDFDFD"/>
</g>
<defs>
<clipPath id="clip0_1_1859">
<rect width="14.8837" height="14.8837" fill="white" transform="translate(9 9.17188)"/>
</clipPath>
</defs>
</svg>
