<svg width="22" height="23" viewBox="0 0 22 23" fill="none" xmlns="http://www.w3.org/2000/svg">
<path d="M0.25 11.1719C0.25 5.23481 5.06294 0.421875 11 0.421875C16.9371 0.421875 21.75 5.23481 21.75 11.1719C21.75 17.1089 16.9371 21.9219 11 21.9219C5.06294 21.9219 0.25 17.1089 0.25 11.1719Z" stroke="#474646" stroke-width="0.5"/>
<path d="M13.0833 15.0257H8.91667C7.39584 15.0257 6.52084 14.1507 6.52084 12.6299V9.71322C6.52084 8.19238 7.39584 7.31738 8.91667 7.31738H13.0833C14.6042 7.31738 15.4792 8.19238 15.4792 9.71322V12.6299C15.4792 14.1507 14.6042 15.0257 13.0833 15.0257ZM8.91667 7.94238C7.725 7.94238 7.14584 8.52155 7.14584 9.71322V12.6299C7.14584 13.8215 7.725 14.4007 8.91667 14.4007H13.0833C14.275 14.4007 14.8542 13.8215 14.8542 12.6299V9.71322C14.8542 8.52155 14.275 7.94238 13.0833 7.94238H8.91667Z" fill="#474646"/>
<path d="M10.9999 11.5348C10.6499 11.5348 10.2957 11.4265 10.0249 11.2057L8.72074 10.164C8.5874 10.0557 8.56241 9.85985 8.67074 9.72652C8.77907 9.59318 8.97491 9.56819 9.10824 9.67652L10.4124 10.7182C10.7291 10.9724 11.2666 10.9724 11.5832 10.7182L12.8874 9.67652C13.0207 9.56819 13.2207 9.58902 13.3249 9.72652C13.4332 9.85985 13.4124 10.0599 13.2749 10.164L11.9707 11.2057C11.7041 11.4265 11.3499 11.5348 10.9999 11.5348Z" fill="#474646"/>
</svg>
