<svg width="271" height="214" viewBox="0 0 271 214" fill="none" xmlns="http://www.w3.org/2000/svg">
<path d="M211.308 51.0869C207.859 43.9047 203.177 38.6526 197.276 35.283L194.207 33.7485C189.493 31.7078 184.193 30.8377 178.308 31.0908C178.023 31.1066 177.723 31.1224 177.422 31.1541C177.106 31.1699 176.774 31.1857 176.457 31.2174C168.468 31.866 159.941 34.8243 150.861 40.0606C141.796 45.3127 133.254 52.1943 125.281 60.7685C117.292 69.327 110.347 78.6922 104.446 88.8801C100.586 95.5243 97.2797 102.374 94.4796 109.414C94.4638 109.446 94.4638 109.461 94.448 109.493C92.961 113.211 91.6005 117.039 90.4298 120.883C89.7812 122.987 89.1801 125.091 88.658 127.164C88.6422 127.195 88.6422 127.227 88.6422 127.259C86.3642 136.165 85.2568 144.803 85.2568 153.234C85.2568 163.644 86.9653 172.424 90.4298 179.606C91.1259 181.046 91.8694 182.422 92.6604 183.719C92.8186 183.972 92.961 184.21 93.1192 184.447C96.0774 189.019 99.6843 192.578 103.94 195.109L106.439 196.359L108.116 197.182H108.132C113.179 199.222 118.889 199.982 125.281 199.476C133.254 198.827 141.796 195.869 150.861 190.617C159.941 185.396 168.468 178.483 176.457 169.924C184.446 161.366 191.375 151.985 197.276 141.813C203.177 131.625 207.859 120.962 211.308 109.809C214.741 98.6566 216.465 87.8833 216.465 77.4739C216.465 67.0646 214.741 58.2532 211.308 51.0869ZM184.225 81.8878L181.836 86.0167L141.686 155.275L113.795 139.376L122.987 123.541L141.686 134.203L178.751 70.2603L184.114 73.3293L185.459 74.0887L187.926 75.4965L184.225 81.8878Z" stroke="#325310" stroke-width="1.89836" stroke-linecap="round" stroke-linejoin="round"/>
<path d="M187.926 75.4966L184.224 81.8877L181.836 86.0166L141.685 155.275L113.795 139.376L122.987 123.541L141.685 134.203L178.751 70.2603L184.114 73.3293L185.458 74.0886L187.926 75.4966Z" fill="#AFE274" stroke="#325310" stroke-width="1.89836" stroke-linecap="round" stroke-linejoin="round"/>
<path d="M194.207 33.7486C189.492 31.7078 184.193 30.8378 178.308 31.0909C178.023 31.1067 177.722 31.1225 177.422 31.1542C177.105 31.17 176.773 31.1858 176.457 31.2174C168.468 31.866 159.941 34.8243 150.861 40.0606C141.796 45.3128 133.253 52.1943 125.28 60.7686C117.291 69.327 110.346 78.6923 104.446 88.8801C100.586 95.5244 97.2794 102.374 94.4793 109.414C94.4635 109.446 94.4635 109.462 94.4477 109.493C92.9606 113.211 91.6001 117.039 90.4295 120.883C89.7809 122.987 89.1797 125.091 88.6577 127.164C88.6418 127.195 88.6418 127.227 88.6418 127.259C86.3638 136.165 85.2564 144.803 85.2564 153.235C85.2564 163.644 86.965 172.424 90.4295 179.606C91.1255 181.046 91.869 182.422 92.66 183.719C92.8182 183.972 92.9606 184.21 93.1188 184.447C96.0771 189.019 99.684 192.578 103.939 195.109L72.3001 179.29C68.0446 176.759 64.4377 173.199 61.4794 168.627C60.5144 167.124 59.6127 165.495 58.7901 163.786C55.3256 156.604 53.6171 147.824 53.6171 137.415C53.6171 128.951 54.7402 120.282 57.0183 111.344C57.5403 109.272 58.1415 107.168 58.7901 105.064C59.9766 101.188 61.3371 97.3437 62.8399 93.5944C65.64 86.5546 68.9463 79.7047 72.8063 73.0605C78.7071 62.8726 85.6519 53.5074 93.6409 44.9489C101.614 36.3747 110.157 29.4931 119.221 24.2409C128.302 19.0046 136.829 16.0463 144.817 15.3977C145.434 15.3502 146.067 15.3028 146.668 15.2711C152.585 15.018 157.916 15.9039 162.646 17.9605L165.636 19.4634L194.207 33.7486Z" fill="#AFE274" stroke="#325310" stroke-width="1.89836" stroke-linecap="round" stroke-linejoin="round"/>
</svg>
