<svg width="128" height="29" viewBox="0 0 128 29" fill="none" xmlns="http://www.w3.org/2000/svg">
<path d="M33.3636 20.401V9.33594H38.5387C40.9494 9.33594 42.2525 10.9645 42.2525 12.9002C42.2525 14.8266 40.9215 16.4552 38.5387 16.4552H35.7185V20.401H33.3636ZM39.8604 12.9002C39.8604 11.9696 39.1437 11.4112 38.2223 11.4112H35.7371V14.3799H38.213C39.1437 14.3799 39.8604 13.8122 39.8604 12.9002Z" fill="#2F2F2F"/>
<path d="M48.1815 20.401C48.1164 20.1869 48.0698 19.945 48.0512 19.6751C47.7999 19.9636 47.4555 20.1963 47.0367 20.3638C46.6178 20.5313 46.1338 20.6243 45.5754 20.6243C44.6353 20.6243 43.9465 20.4196 43.509 20.0008C43.0716 19.582 42.8575 19.0423 42.8575 18.3815C42.8575 17.7952 42.9506 17.3299 43.1367 16.9763C43.3229 16.632 43.5835 16.3528 43.9186 16.1573C44.2537 15.9619 44.6446 15.813 45.1007 15.72C45.5567 15.6269 46.0594 15.5431 46.5992 15.4594C47.1391 15.3849 47.5021 15.2826 47.6975 15.1523C47.8837 15.022 47.9768 14.8173 47.9768 14.5288C47.9768 14.2589 47.8558 14.0541 47.6044 13.9052C47.3531 13.7563 47.0181 13.6819 46.5992 13.6819C46.1059 13.6819 45.7429 13.7936 45.5288 14.0169C45.3147 14.2403 45.1751 14.5288 45.1193 14.8917H43.1088C43.1181 14.4729 43.1926 14.0821 43.3136 13.7284C43.4439 13.3748 43.6487 13.0677 43.9279 12.8164C44.2071 12.5652 44.5794 12.3697 45.0262 12.2301C45.4823 12.0905 46.0314 12.0254 46.683 12.0254C47.3252 12.0254 47.8651 12.0998 48.3118 12.2394C48.7586 12.379 49.1123 12.5931 49.3915 12.863C49.6614 13.1328 49.8569 13.4679 49.9779 13.8773C50.0989 14.2775 50.1641 14.7335 50.1641 15.2453V20.401H48.1815ZM48.0326 16.3993C47.9209 16.511 47.7627 16.5947 47.5486 16.6692C47.3345 16.7343 47.0367 16.8088 46.6364 16.8832C46.0128 17.0042 45.594 17.1624 45.3613 17.3485C45.1286 17.5347 45.0169 17.8045 45.0169 18.1582C45.0169 18.7631 45.3613 19.0702 46.0594 19.0702C46.3386 19.0702 46.5899 19.0237 46.8319 18.9306C47.0739 18.8375 47.2787 18.7073 47.4462 18.549C47.6138 18.3908 47.7534 18.2047 47.8651 17.9814C47.9674 17.7673 48.0233 17.5347 48.0233 17.2927L48.0326 16.3993Z" fill="#2F2F2F"/>
<path d="M51.5695 22.4577L52.5189 20.9501C53.096 21.6481 54.0826 21.9273 54.9296 21.9273C56.2885 21.9273 57.089 20.9966 57.089 19.8706V19.0423C56.5399 19.6379 55.5812 20.2521 54.2688 20.2521C52.5096 20.2521 51.6812 19.2936 51.6812 17.7301V12.3884H53.7848V16.9019C53.7848 18.0093 54.3619 18.3816 55.2647 18.3816C56.0745 18.3816 56.726 17.9349 57.089 17.4696V12.3884H59.1926V19.8706C59.1926 22.2809 57.4799 23.6489 54.9296 23.6489C53.58 23.6489 52.5003 23.2674 51.5695 22.4577ZM65.9407 20.401V18.1117H60.6446V16.2505L65.0378 9.33594H68.2862V16.0364H69.7103V18.1117H68.2862V20.401H65.9407ZM65.9407 11.4205L62.9529 16.0364H65.9407V11.4205ZM80.8609 20.401V12.4163L77.7428 20.401H76.7097L73.5916 12.4163V20.401H71.2368V9.33594H74.541L77.2309 16.2505L79.9209 9.33594H83.2437V20.401H80.8609ZM84.8633 16.3807C84.8633 14.0542 86.5852 12.1836 89.0145 12.1836C91.4252 12.1836 93.0261 13.9797 93.0261 16.5762V17.0694H87.0692C87.2181 18.0466 88.0186 18.8655 89.3775 18.8655C90.057 18.8655 90.9877 18.5863 91.4997 18.0838L92.4491 19.4797C91.6486 20.2056 90.392 20.5872 89.1448 20.5872C86.7062 20.5965 84.8633 18.9586 84.8633 16.3807ZM89.0145 13.9146C87.7021 13.9146 87.1437 14.8266 87.0599 15.6269H91.0064C90.9319 14.8545 90.4014 13.9146 89.0145 13.9146ZM106.513 20.401L105.815 18.5305H101.068L100.37 20.401H97.6986L101.962 9.33594H104.912L109.175 20.401H106.513ZM103.451 11.6904L101.729 16.4552H105.182L103.451 11.6904ZM112.275 19.368V23.4535H110.171V12.3884H112.275V13.4028C112.889 12.621 113.764 12.1929 114.75 12.1929C116.807 12.1929 118.306 13.7192 118.306 16.3901C118.306 19.0609 116.817 20.6058 114.75 20.6058C113.801 20.5965 112.935 20.2056 112.275 19.368ZM116.128 16.3807C116.128 15.0034 115.3 14.0542 114.09 14.0542C113.41 14.0542 112.647 14.4357 112.284 14.9662V17.786C112.628 18.2978 113.41 18.7166 114.09 18.7166C115.29 18.7259 116.128 17.7767 116.128 16.3807ZM121.945 19.368V23.4535H119.842V12.3884H121.945V13.4028C122.56 12.621 123.434 12.1929 124.421 12.1929C126.478 12.1929 127.977 13.7192 127.977 16.3901C127.977 19.0609 126.487 20.6058 124.421 20.6058C123.472 20.5965 122.615 20.2056 121.945 19.368ZM125.799 16.3807C125.799 15.0034 124.97 14.0542 123.76 14.0542C123.081 14.0542 122.318 14.4357 121.955 14.9662V17.786C122.299 18.2978 123.081 18.7166 123.76 18.7166C124.97 18.7259 125.799 17.7767 125.799 16.3807Z" fill="#2F2F2F"/>
<g opacity="0.78">
<path d="M19.914 28.1714H7.37646C3.3183 28.1714 0.0233612 24.877 0.0233612 20.8195V8.29332C0.0233612 4.23581 3.3183 0.941406 7.37646 0.941406H19.914C23.9721 0.941406 27.2671 4.23581 27.2671 8.29332V20.8288C27.2671 24.8863 23.9721 28.1714 19.914 28.1714Z" fill="#7AC52D"/>
<path opacity="0.78" d="M3.99776 20.8006V13.3649C3.99776 12.9741 4.24907 12.6297 4.61207 12.5088L7.84185 11.4199V15.3751C7.84185 15.8683 8.149 16.3057 8.60508 16.4825C9.7127 16.9013 11.6766 17.6458 12.2072 17.8226C12.8029 18.018 12.7284 18.6974 12.6632 18.9673C12.626 18.9859 12.5981 19.0045 12.5609 19.0231L5.20776 21.6568C4.74237 21.8243 4.22114 21.5823 4.0536 21.117C4.01637 21.0146 3.99776 20.9123 3.99776 20.8006Z" fill="white"/>
<path opacity="0.53" d="M7.84185 11.4213V8.58247C7.84185 7.93093 8.37239 7.40039 9.02393 7.40039C9.16355 7.40039 9.29386 7.42831 9.42416 7.47485L12.6819 8.64763L12.7377 8.75932C12.9146 9.24332 12.6726 9.77386 12.1886 9.95071C12.1792 9.95071 12.1699 9.96001 12.1513 9.96001L7.84185 11.4213Z" fill="white"/>
<path d="M12.6819 8.64648L12.7377 8.75815C12.9146 9.24208 12.6726 9.77254 12.1886 9.94936C12.1792 9.94936 12.1699 9.95866 12.1513 9.95866L7.84185 11.4197V15.3749C7.84185 15.8681 8.149 16.3055 8.60508 16.4823C9.7127 16.9011 11.6766 17.6456 12.2072 17.8224C12.8029 18.0178 12.7284 18.6972 12.6632 18.9671C13.1473 18.6879 13.4544 18.1947 13.4916 17.6363V9.89351C13.4916 9.53988 13.352 9.20485 13.1193 8.94428C12.9983 8.81399 12.8494 8.70232 12.6819 8.64648Z" fill="white"/>
<path opacity="0.78" d="M23.2927 8.31154V15.7472C23.2927 16.1381 23.0507 16.4824 22.6784 16.6034L19.4486 17.6922V13.7371C19.4486 13.2438 19.1414 12.8064 18.6853 12.6296C17.587 12.2108 15.6138 11.4663 15.0833 11.2895C14.4876 11.0941 14.562 10.4147 14.6272 10.1449C14.6644 10.1262 14.6923 10.1076 14.7296 10.089L22.0827 7.45536C22.5574 7.28785 23.0693 7.52981 23.2368 8.00443C23.2741 8.09749 23.2927 8.20917 23.2927 8.31154Z" fill="white"/>
<path d="M13.7895 12.5371V19.0049C13.7802 17.8696 13.7895 14.3239 13.7895 12.5371Z" fill="white"/>
<path opacity="0.53" d="M19.4486 17.6924V20.5312C19.4486 21.1828 18.918 21.7133 18.2665 21.7133C18.1269 21.7133 17.9966 21.6854 17.8663 21.6389L14.6179 20.4661L14.562 20.3544C14.3852 19.8704 14.6272 19.3399 15.1112 19.163C15.1205 19.163 15.1298 19.1537 15.1484 19.1537L19.4486 17.6924Z" fill="white"/>
<path d="M14.6179 20.4661L14.562 20.3544C14.3852 19.8705 14.6272 19.3401 15.1112 19.1632C15.1205 19.1632 15.1298 19.1539 15.1484 19.1539L19.4579 17.6928V13.7377C19.4579 13.2445 19.1507 12.8071 18.6947 12.6303C17.5963 12.2115 15.6231 11.467 15.0926 11.2902C14.4969 11.0947 14.5713 10.4154 14.6365 10.1455C14.1525 10.4247 13.8453 10.9272 13.8081 11.4763V19.2098C13.8081 19.5634 13.9384 19.8984 14.1804 20.159C14.2921 20.2986 14.4503 20.401 14.6179 20.4661Z" fill="white"/>
</g>
</svg>
