<svg width="28" height="29" viewBox="0 0 28 29" fill="none" xmlns="http://www.w3.org/2000/svg">
<g opacity="0.78">
<path d="M19.914 28.1714H7.37646C3.3183 28.1714 0.0233612 24.877 0.0233612 20.8195V8.29332C0.0233612 4.23581 3.3183 0.941406 7.37646 0.941406H19.914C23.9721 0.941406 27.2671 4.23581 27.2671 8.29332V20.8288C27.2671 24.8863 23.9721 28.1714 19.914 28.1714Z" fill="#7AC52D"/>
<path opacity="0.78" d="M3.99776 20.8006V13.3649C3.99776 12.9741 4.24907 12.6297 4.61207 12.5088L7.84185 11.4199V15.3751C7.84185 15.8683 8.149 16.3057 8.60508 16.4825C9.7127 16.9013 11.6766 17.6458 12.2072 17.8226C12.8029 18.018 12.7284 18.6974 12.6632 18.9673C12.626 18.9859 12.5981 19.0045 12.5609 19.0231L5.20776 21.6568C4.74237 21.8243 4.22114 21.5823 4.0536 21.117C4.01637 21.0146 3.99776 20.9123 3.99776 20.8006Z" fill="white"/>
<path opacity="0.53" d="M7.84185 11.4213V8.58247C7.84185 7.93093 8.37239 7.40039 9.02393 7.40039C9.16355 7.40039 9.29386 7.42831 9.42416 7.47485L12.6819 8.64763L12.7377 8.75932C12.9146 9.24332 12.6726 9.77386 12.1886 9.95071C12.1792 9.95071 12.1699 9.96001 12.1513 9.96001L7.84185 11.4213Z" fill="white"/>
<path d="M12.6819 8.64648L12.7377 8.75815C12.9146 9.24208 12.6726 9.77254 12.1886 9.94936C12.1792 9.94936 12.1699 9.95866 12.1513 9.95866L7.84185 11.4197V15.3749C7.84185 15.8681 8.149 16.3055 8.60508 16.4823C9.7127 16.9011 11.6766 17.6456 12.2072 17.8224C12.8029 18.0178 12.7284 18.6972 12.6632 18.9671C13.1473 18.6879 13.4544 18.1947 13.4916 17.6363V9.89351C13.4916 9.53988 13.352 9.20485 13.1193 8.94428C12.9983 8.81399 12.8494 8.70232 12.6819 8.64648Z" fill="white"/>
<path opacity="0.78" d="M23.2927 8.31154V15.7472C23.2927 16.1381 23.0507 16.4824 22.6784 16.6034L19.4486 17.6922V13.7371C19.4486 13.2438 19.1414 12.8064 18.6853 12.6296C17.587 12.2108 15.6138 11.4663 15.0833 11.2895C14.4876 11.0941 14.562 10.4147 14.6272 10.1449C14.6644 10.1262 14.6923 10.1076 14.7296 10.089L22.0827 7.45536C22.5574 7.28785 23.0693 7.52981 23.2368 8.00443C23.2741 8.09749 23.2927 8.20917 23.2927 8.31154Z" fill="white"/>
<path d="M13.7895 12.5371V19.0049C13.7802 17.8696 13.7895 14.3239 13.7895 12.5371Z" fill="white"/>
<path opacity="0.53" d="M19.4486 17.6924V20.5312C19.4486 21.1828 18.918 21.7133 18.2665 21.7133C18.1269 21.7133 17.9966 21.6854 17.8663 21.6389L14.6179 20.4661L14.562 20.3544C14.3852 19.8704 14.6272 19.3399 15.1112 19.163C15.1205 19.163 15.1298 19.1537 15.1484 19.1537L19.4486 17.6924Z" fill="white"/>
<path d="M14.6179 20.4661L14.562 20.3544C14.3852 19.8705 14.6272 19.3401 15.1112 19.1632C15.1205 19.1632 15.1298 19.1539 15.1484 19.1539L19.4579 17.6928V13.7377C19.4579 13.2445 19.1507 12.8071 18.6947 12.6303C17.5963 12.2115 15.6231 11.467 15.0926 11.2902C14.4969 11.0947 14.5713 10.4154 14.6365 10.1455C14.1525 10.4247 13.8453 10.9272 13.8081 11.4763V19.2098C13.8081 19.5634 13.9384 19.8984 14.1804 20.159C14.2921 20.2986 14.4503 20.401 14.6179 20.4661Z" fill="white"/>
</g>
</svg>
