<svg width="24" height="25" viewBox="0 0 24 25" fill="none" xmlns="http://www.w3.org/2000/svg">
<path d="M21.5078 9.9678L5.19138 0.641176C4.7917 0.413205 4.33917 0.294151 3.87905 0.295918C3.41892 0.297684 2.96733 0.420209 2.5694 0.651242C2.17148 0.882274 1.84118 1.21372 1.61153 1.61244C1.38188 2.01116 1.26092 2.46318 1.26074 2.9233V21.5765C1.2607 22.037 1.38162 22.4894 1.61138 22.8884C1.84114 23.2874 2.1717 23.619 2.56994 23.8501C2.96819 24.0812 3.42015 24.2037 3.88059 24.2052C4.34102 24.2067 4.79378 24.0872 5.19352 23.8587L21.5074 14.5316C21.9096 14.3017 22.244 13.9696 22.4765 13.5688C22.709 13.1681 22.8315 12.713 22.8315 12.2497C22.8315 11.7864 22.709 11.3313 22.4765 10.9306C22.244 10.5299 21.9101 10.1977 21.5078 9.9678ZM14.4373 7.76252L12.197 10.8836L6.83818 3.41901L14.4373 7.76252ZM3.7841 22.6017C3.63757 22.5885 3.49559 22.544 3.36781 22.471C3.211 22.3797 3.08089 22.2488 2.99046 22.0915C2.90003 21.9342 2.85245 21.7559 2.85247 21.5744V2.9233C2.8519 2.66707 2.94686 2.41983 3.11882 2.22988C3.29078 2.03992 3.52738 1.92088 3.7824 1.89603L11.2159 12.2499L3.7841 22.6017ZM6.83818 21.0808L12.197 13.6162L14.4373 16.7369L6.83818 21.0808ZM20.7145 13.1478L15.8284 15.9419L13.1782 12.2499L15.8288 8.55796L20.7167 11.3533C20.875 11.4437 21.0066 11.5744 21.0981 11.7321C21.1896 11.8898 21.2378 12.0689 21.2378 12.2512C21.2378 12.4335 21.1896 12.6126 21.0981 12.7703C21.0066 12.928 20.875 13.0587 20.7167 13.1491L20.7145 13.1478Z" fill="#FDFDFD"/>
</svg>
