<svg width="269" height="214" viewBox="0 0 269 214" fill="none" xmlns="http://www.w3.org/2000/svg">
<rect x="0.3" y="0.3" width="268.4" height="213.4" rx="15.7" fill="#FDFDFD"/>
<rect x="0.3" y="0.3" width="268.4" height="213.4" rx="15.7" stroke="#E0E0E0" stroke-width="0.6"/>
<rect x="25.5234" y="74.5234" width="65.9531" height="65.9531" rx="15.4766" fill="#111111"/>
<rect x="25.5234" y="74.5234" width="65.9531" height="65.9531" rx="15.4766" stroke="#5D5D5D" stroke-width="1.04688"/>
<path d="M59.0166 93.7512L71.5791 98.7762C72.0676 98.9716 72.4585 99.5579 72.4585 100.074V104.708C72.4585 105.476 71.8304 106.104 71.0626 106.104H45.9376C45.1699 106.104 44.5418 105.476 44.5418 104.708V100.074C44.5418 99.5579 44.9326 98.9716 45.4212 98.7762L57.9837 93.7512C58.2629 93.6396 58.7374 93.6396 59.0166 93.7512Z" stroke="#FCFCFC" stroke-width="1.675" stroke-miterlimit="10" stroke-linecap="round" stroke-linejoin="round"/>
<path d="M72.4585 121.458H44.5418V117.271C44.5418 116.503 45.1699 115.875 45.9376 115.875H71.0626C71.8304 115.875 72.4585 116.503 72.4585 117.271V121.458Z" stroke="#FCFCFC" stroke-width="1.675" stroke-miterlimit="10" stroke-linecap="round" stroke-linejoin="round"/>
<path d="M47.3332 115.875V106.104" stroke="#FCFCFC" stroke-width="1.675" stroke-miterlimit="10" stroke-linecap="round" stroke-linejoin="round"/>
<path d="M52.9168 115.875V106.104" stroke="#FCFCFC" stroke-width="1.675" stroke-miterlimit="10" stroke-linecap="round" stroke-linejoin="round"/>
<path d="M58.5 115.875V106.104" stroke="#FCFCFC" stroke-width="1.675" stroke-miterlimit="10" stroke-linecap="round" stroke-linejoin="round"/>
<path d="M64.0832 115.875V106.104" stroke="#FCFCFC" stroke-width="1.675" stroke-miterlimit="10" stroke-linecap="round" stroke-linejoin="round"/>
<path d="M69.6668 115.875V106.104" stroke="#FCFCFC" stroke-width="1.675" stroke-miterlimit="10" stroke-linecap="round" stroke-linejoin="round"/>
<path d="M43.1457 121.458H73.854" stroke="#FCFCFC" stroke-width="1.675" stroke-miterlimit="10" stroke-linecap="round" stroke-linejoin="round"/>
<path d="M58.5 102.615C59.6563 102.615 60.5938 101.677 60.5938 100.521C60.5938 99.3644 59.6563 98.427 58.5 98.427C57.3437 98.427 56.4062 99.3644 56.4062 100.521C56.4062 101.677 57.3437 102.615 58.5 102.615Z" stroke="#FCFCFC" stroke-width="1.675" stroke-miterlimit="10" stroke-linecap="round" stroke-linejoin="round"/>
<path d="M95.4697 106.97C95.1768 107.263 95.1768 107.737 95.4697 108.03L100.243 112.803C100.536 113.096 101.01 113.096 101.303 112.803C101.596 112.51 101.596 112.036 101.303 111.743L97.0607 107.5L101.303 103.257C101.596 102.964 101.596 102.49 101.303 102.197C101.01 101.904 100.536 101.904 100.243 102.197L95.4697 106.97ZM173.53 108.03C173.823 107.737 173.823 107.263 173.53 106.97L168.757 102.197C168.464 101.904 167.99 101.904 167.697 102.197C167.404 102.49 167.404 102.964 167.697 103.257L171.939 107.5L167.697 111.743C167.404 112.036 167.404 112.51 167.697 112.803C167.99 113.096 168.464 113.096 168.757 112.803L173.53 108.03ZM96 108.25L97.925 108.25L97.925 106.75L96 106.75L96 108.25ZM101.775 108.25L105.625 108.25L105.625 106.75L101.775 106.75L101.775 108.25ZM109.475 108.25L113.325 108.25L113.325 106.75L109.475 106.75L109.475 108.25ZM117.175 108.25L121.025 108.25L121.025 106.75L117.175 106.75L117.175 108.25ZM124.875 108.25L128.725 108.25L128.725 106.75L124.875 106.75L124.875 108.25ZM132.575 108.25L136.425 108.25L136.425 106.75L132.575 106.75L132.575 108.25ZM140.275 108.25L144.125 108.25L144.125 106.75L140.275 106.75L140.275 108.25ZM147.975 108.25L151.825 108.25L151.825 106.75L147.975 106.75L147.975 108.25ZM155.675 108.25L159.525 108.25L159.525 106.75L155.675 106.75L155.675 108.25ZM163.375 108.25L167.225 108.25L167.225 106.75L163.375 106.75L163.375 108.25ZM171.075 108.25L173 108.25L173 106.75L171.075 106.75L171.075 108.25Z" fill="#A3A3A3"/>
<rect x="178" y="75" width="66" height="65" rx="15" fill="#FDFDFD"/>
<rect x="178" y="75" width="66" height="65" rx="15" stroke="#8FC253" stroke-width="2"/>
<g opacity="0.78">
<path d="M222.05 131.5H199.95C192.796 131.5 186.988 125.693 186.988 118.54V96.4597C186.988 89.3072 192.796 83.5 199.95 83.5H222.05C229.204 83.5 235.012 89.3072 235.012 96.4597V118.557C235.012 125.709 229.204 131.5 222.05 131.5Z" fill="#7AC52D"/>
<path opacity="0.78" d="M193.994 118.507V105.4C193.994 104.711 194.437 104.104 195.077 103.891L200.77 101.971V108.943C200.77 109.813 201.312 110.584 202.116 110.896C204.068 111.634 207.53 112.946 208.465 113.258C209.515 113.602 209.384 114.8 209.269 115.276C209.204 115.308 209.154 115.341 209.089 115.374L196.127 120.017C195.307 120.312 194.388 119.885 194.092 119.065C194.027 118.885 193.994 118.704 193.994 118.507Z" fill="white"/>
<path opacity="0.53" d="M200.77 101.973V96.9687C200.77 95.8202 201.705 94.885 202.854 94.885C203.1 94.885 203.329 94.9342 203.559 95.0163L209.302 97.0836L209.4 97.2805C209.712 98.1337 209.285 99.0689 208.432 99.3806C208.416 99.3806 208.399 99.397 208.367 99.397L200.77 101.973Z" fill="white"/>
<path d="M209.302 97.083L209.4 97.2799C209.712 98.1329 209.285 99.068 208.432 99.3797C208.416 99.3797 208.399 99.3961 208.367 99.3961L200.77 101.972V108.944C200.77 109.813 201.311 110.584 202.115 110.896C204.068 111.634 207.53 112.946 208.465 113.258C209.515 113.602 209.384 114.8 209.269 115.276C210.122 114.784 210.664 113.914 210.729 112.93V99.2812C210.729 98.6578 210.483 98.0673 210.073 97.6079C209.86 97.3783 209.597 97.1814 209.302 97.083Z" fill="white"/>
<path opacity="0.78" d="M228.006 96.4926V109.6C228.006 110.289 227.58 110.896 226.923 111.109L221.23 113.028V106.056C221.23 105.187 220.688 104.416 219.884 104.104C217.948 103.366 214.47 102.054 213.535 101.742C212.485 101.398 212.616 100.2 212.731 99.7243C212.797 99.6915 212.846 99.6587 212.911 99.6259L225.873 94.9834C226.71 94.6881 227.612 95.1146 227.908 95.9512C227.973 96.1153 228.006 96.3121 228.006 96.4926Z" fill="white"/>
<path d="M211.254 103.94V115.341C211.238 113.34 211.254 107.09 211.254 103.94Z" fill="white"/>
<path opacity="0.53" d="M221.23 113.028V118.032C221.23 119.181 220.295 120.116 219.146 120.116C218.9 120.116 218.67 120.067 218.441 119.985L212.714 117.917L212.616 117.721C212.304 116.867 212.731 115.932 213.584 115.62C213.6 115.62 213.617 115.604 213.65 115.604L221.23 113.028Z" fill="white"/>
<path d="M212.715 117.917L212.616 117.72C212.305 116.867 212.731 115.932 213.584 115.62C213.601 115.62 213.617 115.604 213.65 115.604L221.247 113.029V106.057C221.247 105.187 220.705 104.416 219.901 104.104C217.965 103.366 214.487 102.054 213.552 101.742C212.501 101.398 212.633 100.2 212.748 99.7244C211.894 100.217 211.353 101.102 211.287 102.07V115.702C211.287 116.326 211.517 116.916 211.944 117.376C212.14 117.622 212.419 117.802 212.715 117.917Z" fill="white"/>
</g>
</svg>
