<svg width="24" height="25" viewBox="0 0 24 25" fill="none" xmlns="http://www.w3.org/2000/svg">
<path d="M21.4178 10.6592L5.10129 1.33258C4.70161 1.10461 4.24908 0.985558 3.78896 0.987324C3.32884 0.98909 2.87724 1.11162 2.47932 1.34265C2.0814 1.57368 1.7511 1.90513 1.52144 2.30384C1.29179 2.70256 1.17083 3.15458 1.17065 3.61471V22.268C1.17061 22.7284 1.29153 23.1808 1.52129 23.5798C1.75106 23.9788 2.08161 24.3104 2.47985 24.5415C2.8781 24.7726 3.33006 24.8951 3.7905 24.8966C4.25094 24.8981 4.70369 24.7786 5.10343 24.5501L21.4173 15.223C21.8196 14.9931 22.1539 14.661 22.3864 14.2602C22.6189 13.8595 22.7414 13.4044 22.7414 12.9411C22.7414 12.4778 22.6189 12.0227 22.3864 11.622C22.1539 11.2213 21.82 10.8891 21.4178 10.6592ZM14.3472 8.45393L12.1069 11.575L6.7481 4.11042L14.3472 8.45393ZM3.69402 23.2931C3.54748 23.2799 3.4055 23.2354 3.27773 23.1624C3.12092 23.0711 2.9908 22.9403 2.90037 22.7829C2.80995 22.6256 2.76236 22.4473 2.76238 22.2658V3.61471C2.76181 3.35848 2.85678 3.11124 3.02873 2.92128C3.20069 2.73132 3.43729 2.61229 3.69231 2.58743L11.1258 12.9413L3.69402 23.2931ZM6.7481 21.7722L12.1069 14.3076L14.3472 17.4283L6.7481 21.7722ZM20.6245 13.8392L15.7383 16.6333L13.0881 12.9413L15.7387 9.24937L20.6266 12.0447C20.7849 12.1351 20.9165 12.2658 21.008 12.4235C21.0995 12.5812 21.1477 12.7603 21.1477 12.9426C21.1477 13.1249 21.0995 13.304 21.008 13.4617C20.9165 13.6194 20.7849 13.7501 20.6266 13.8405L20.6245 13.8392Z" fill="#FDFDFD"/>
</svg>
