<svg width="271" height="214" viewBox="0 0 271 214" fill="none" xmlns="http://www.w3.org/2000/svg">
<rect x="0.956677" y="0.3" width="269.087" height="213.4" rx="15.7" fill="#242323"/>
<rect x="0.956677" y="0.3" width="269.087" height="213.4" rx="15.7" stroke="#E0E0E0" stroke-width="0.6"/>
<rect x="53.4999" y="25" width="164" height="164" rx="7.85629" fill="white"/>
<g clip-path="url(#clip0_1_1537)">
<mask id="mask0_1_1537" style="mask-type:luminance" maskUnits="userSpaceOnUse" x="64" y="36" width="143" height="142">
<path d="M108.855 36.3691H103.838V41.3864H108.855V36.3691Z" fill="white"/>
<path d="M113.726 36.3691H108.709V41.3864H113.726V36.3691Z" fill="white"/>
<path d="M123.468 36.3691H118.451V41.3864H123.468V36.3691Z" fill="white"/>
<path d="M138.082 36.3691H133.064V41.3864H138.082V36.3691Z" fill="white"/>
<path d="M142.953 36.3691H137.936V41.3864H142.953V36.3691Z" fill="white"/>
<path d="M147.824 36.3691H142.807V41.3864H147.824V36.3691Z" fill="white"/>
<path d="M152.695 36.3691H147.678V41.3864H152.695V36.3691Z" fill="white"/>
<path d="M157.566 36.3691H152.549V41.3864H157.566V36.3691Z" fill="white"/>
<path d="M108.855 41.2402H103.838V46.2575H108.855V41.2402Z" fill="white"/>
<path d="M113.726 41.2402H108.709V46.2575H113.726V41.2402Z" fill="white"/>
<path d="M118.597 41.2402H113.58V46.2575H118.597V41.2402Z" fill="white"/>
<path d="M123.468 41.2402H118.451V46.2575H123.468V41.2402Z" fill="white"/>
<path d="M128.339 41.2402H123.322V46.2575H128.339V41.2402Z" fill="white"/>
<path d="M138.082 41.2402H133.064V46.2575H138.082V41.2402Z" fill="white"/>
<path d="M147.824 41.2402H142.807V46.2575H147.824V41.2402Z" fill="white"/>
<path d="M152.695 41.2402H147.678V46.2575H152.695V41.2402Z" fill="white"/>
<path d="M108.855 46.1113H103.838V51.1286H108.855V46.1113Z" fill="white"/>
<path d="M123.468 46.1113H118.451V51.1286H123.468V46.1113Z" fill="white"/>
<path d="M128.339 46.1113H123.322V51.1286H128.339V46.1113Z" fill="white"/>
<path d="M133.211 46.1113H128.193V51.1286H133.211V46.1113Z" fill="white"/>
<path d="M138.082 46.1113H133.064V51.1286H138.082V46.1113Z" fill="white"/>
<path d="M157.566 46.1113H152.549V51.1286H157.566V46.1113Z" fill="white"/>
<path d="M162.437 46.1113H157.42V51.1286H162.437V46.1113Z" fill="white"/>
<path d="M118.597 50.9824H113.58V55.9997H118.597V50.9824Z" fill="white"/>
<path d="M133.211 50.9824H128.193V55.9997H133.211V50.9824Z" fill="white"/>
<path d="M142.953 50.9824H137.936V55.9997H142.953V50.9824Z" fill="white"/>
<path d="M147.824 50.9824H142.807V55.9997H147.824V50.9824Z" fill="white"/>
<path d="M152.695 50.9824H147.678V55.9997H152.695V50.9824Z" fill="white"/>
<path d="M118.597 55.8535H113.58V60.8707H118.597V55.8535Z" fill="white"/>
<path d="M123.468 55.8535H118.451V60.8707H123.468V55.8535Z" fill="white"/>
<path d="M138.082 55.8535H133.064V60.8707H138.082V55.8535Z" fill="white"/>
<path d="M152.695 55.8535H147.678V60.8707H152.695V55.8535Z" fill="white"/>
<path d="M157.566 55.8535H152.549V60.8707H157.566V55.8535Z" fill="white"/>
<path d="M162.437 55.8535H157.42V60.8707H162.437V55.8535Z" fill="white"/>
<path d="M108.855 60.7246H103.838V65.7418H108.855V60.7246Z" fill="white"/>
<path d="M113.726 60.7246H108.709V65.7418H113.726V60.7246Z" fill="white"/>
<path d="M138.082 60.7246H133.064V65.7418H138.082V60.7246Z" fill="white"/>
<path d="M147.824 60.7246H142.807V65.7418H147.824V60.7246Z" fill="white"/>
<path d="M152.695 60.7246H147.678V65.7418H152.695V60.7246Z" fill="white"/>
<path d="M108.855 65.5957H103.838V70.6129H108.855V65.5957Z" fill="white"/>
<path d="M118.597 65.5957H113.58V70.6129H118.597V65.5957Z" fill="white"/>
<path d="M128.339 65.5957H123.322V70.6129H128.339V65.5957Z" fill="white"/>
<path d="M138.082 65.5957H133.064V70.6129H138.082V65.5957Z" fill="white"/>
<path d="M147.824 65.5957H142.807V70.6129H147.824V65.5957Z" fill="white"/>
<path d="M157.566 65.5957H152.549V70.6129H157.566V65.5957Z" fill="white"/>
<path d="M167.308 65.5957H162.291V70.6129H167.308V65.5957Z" fill="white"/>
<path d="M108.855 70.4668H103.838V75.484H108.855V70.4668Z" fill="white"/>
<path d="M113.726 70.4668H108.709V75.484H113.726V70.4668Z" fill="white"/>
<path d="M118.597 70.4668H113.58V75.484H118.597V70.4668Z" fill="white"/>
<path d="M138.082 70.4668H133.064V75.484H138.082V70.4668Z" fill="white"/>
<path d="M147.824 70.4668H142.807V75.484H147.824V70.4668Z" fill="white"/>
<path d="M152.695 70.4668H147.678V75.484H152.695V70.4668Z" fill="white"/>
<path d="M157.566 70.4668H152.549V75.484H157.566V70.4668Z" fill="white"/>
<path d="M162.437 70.4668H157.42V75.484H162.437V70.4668Z" fill="white"/>
<path d="M79.6285 75.3381H74.6113V80.3554H79.6285V75.3381Z" fill="white"/>
<path d="M84.4996 75.3381H79.4824V80.3554H84.4996V75.3381Z" fill="white"/>
<path d="M89.3707 75.3381H84.3535V80.3554H89.3707V75.3381Z" fill="white"/>
<path d="M99.1129 75.3381H94.0957V80.3554H99.1129V75.3381Z" fill="white"/>
<path d="M108.855 75.3381H103.838V80.3554H108.855V75.3381Z" fill="white"/>
<path d="M123.468 75.3381H118.451V80.3554H123.468V75.3381Z" fill="white"/>
<path d="M133.211 75.3381H128.193V80.3554H133.211V75.3381Z" fill="white"/>
<path d="M147.824 75.3381H142.807V80.3554H147.824V75.3381Z" fill="white"/>
<path d="M167.308 75.3381H162.291V80.3554H167.308V75.3381Z" fill="white"/>
<path d="M172.179 75.3381H167.162V80.3554H172.179V75.3381Z" fill="white"/>
<path d="M177.05 75.3381H172.033V80.3554H177.05V75.3381Z" fill="white"/>
<path d="M181.922 75.3381H176.904V80.3554H181.922V75.3381Z" fill="white"/>
<path d="M196.535 75.3381H191.518V80.3554H196.535V75.3381Z" fill="white"/>
<path d="M201.406 75.3381H196.389V80.3554H201.406V75.3381Z" fill="white"/>
<path d="M206.277 75.3381H201.26V80.3554H206.277V75.3381Z" fill="white"/>
<path d="M69.8863 80.209H64.8691V85.2262H69.8863V80.209Z" fill="white"/>
<path d="M94.2418 80.209H89.2246V85.2262H94.2418V80.209Z" fill="white"/>
<path d="M103.984 80.209H98.9668V85.2262H103.984V80.209Z" fill="white"/>
<path d="M118.597 80.209H113.58V85.2262H118.597V80.209Z" fill="white"/>
<path d="M123.468 80.209H118.451V85.2262H123.468V80.209Z" fill="white"/>
<path d="M138.082 80.209H133.064V85.2262H138.082V80.209Z" fill="white"/>
<path d="M142.953 80.209H137.936V85.2262H142.953V80.209Z" fill="white"/>
<path d="M157.566 80.209H152.549V85.2262H157.566V80.209Z" fill="white"/>
<path d="M162.437 80.209H157.42V85.2262H162.437V80.209Z" fill="white"/>
<path d="M177.05 80.209H172.033V85.2262H177.05V80.209Z" fill="white"/>
<path d="M181.922 80.209H176.904V85.2262H181.922V80.209Z" fill="white"/>
<path d="M186.793 80.209H181.775V85.2262H186.793V80.209Z" fill="white"/>
<path d="M191.664 80.209H186.646V85.2262H191.664V80.209Z" fill="white"/>
<path d="M206.277 80.209H201.26V85.2262H206.277V80.209Z" fill="white"/>
<path d="M69.8863 85.0803H64.8691V90.0976H69.8863V85.0803Z" fill="white"/>
<path d="M74.7574 85.0803H69.7402V90.0976H74.7574V85.0803Z" fill="white"/>
<path d="M94.2418 85.0803H89.2246V90.0976H94.2418V85.0803Z" fill="white"/>
<path d="M99.1129 85.0803H94.0957V90.0976H99.1129V85.0803Z" fill="white"/>
<path d="M113.726 85.0803H108.709V90.0976H113.726V85.0803Z" fill="white"/>
<path d="M118.597 85.0803H113.58V90.0976H118.597V85.0803Z" fill="white"/>
<path d="M142.953 85.0803H137.936V90.0976H142.953V85.0803Z" fill="white"/>
<path d="M152.695 85.0803H147.678V90.0976H152.695V85.0803Z" fill="white"/>
<path d="M157.566 85.0803H152.549V90.0976H157.566V85.0803Z" fill="white"/>
<path d="M167.308 85.0803H162.291V90.0976H167.308V85.0803Z" fill="white"/>
<path d="M172.179 85.0803H167.162V90.0976H172.179V85.0803Z" fill="white"/>
<path d="M177.05 85.0803H172.033V90.0976H177.05V85.0803Z" fill="white"/>
<path d="M84.4996 89.9512H79.4824V94.9684H84.4996V89.9512Z" fill="white"/>
<path d="M89.3707 89.9512H84.3535V94.9684H89.3707V89.9512Z" fill="white"/>
<path d="M103.984 89.9512H98.9668V94.9684H103.984V89.9512Z" fill="white"/>
<path d="M108.855 89.9512H103.838V94.9684H108.855V89.9512Z" fill="white"/>
<path d="M113.726 89.9512H108.709V94.9684H113.726V89.9512Z" fill="white"/>
<path d="M118.597 89.9512H113.58V94.9684H118.597V89.9512Z" fill="white"/>
<path d="M123.468 89.9512H118.451V94.9684H123.468V89.9512Z" fill="white"/>
<path d="M133.211 89.9512H128.193V94.9684H133.211V89.9512Z" fill="white"/>
<path d="M142.953 89.9512H137.936V94.9684H142.953V89.9512Z" fill="white"/>
<path d="M152.695 89.9512H147.678V94.9684H152.695V89.9512Z" fill="white"/>
<path d="M157.566 89.9512H152.549V94.9684H157.566V89.9512Z" fill="white"/>
<path d="M162.437 89.9512H157.42V94.9684H162.437V89.9512Z" fill="white"/>
<path d="M167.308 89.9512H162.291V94.9684H167.308V89.9512Z" fill="white"/>
<path d="M172.179 89.9512H167.162V94.9684H172.179V89.9512Z" fill="white"/>
<path d="M177.05 89.9512H172.033V94.9684H177.05V89.9512Z" fill="white"/>
<path d="M186.793 89.9512H181.775V94.9684H186.793V89.9512Z" fill="white"/>
<path d="M191.664 89.9512H186.646V94.9684H191.664V89.9512Z" fill="white"/>
<path d="M201.406 89.9512H196.389V94.9684H201.406V89.9512Z" fill="white"/>
<path d="M74.7574 94.8223H69.7402V99.8395H74.7574V94.8223Z" fill="white"/>
<path d="M84.4996 94.8223H79.4824V99.8395H84.4996V94.8223Z" fill="white"/>
<path d="M89.3707 94.8223H84.3535V99.8395H89.3707V94.8223Z" fill="white"/>
<path d="M94.2418 94.8223H89.2246V99.8395H94.2418V94.8223Z" fill="white"/>
<path d="M99.1129 94.8223H94.0957V99.8395H99.1129V94.8223Z" fill="white"/>
<path d="M138.082 94.8223H133.064V99.8395H138.082V94.8223Z" fill="white"/>
<path d="M142.953 94.8223H137.936V99.8395H142.953V94.8223Z" fill="white"/>
<path d="M157.566 94.8223H152.549V99.8395H157.566V94.8223Z" fill="white"/>
<path d="M162.437 94.8223H157.42V99.8395H162.437V94.8223Z" fill="white"/>
<path d="M167.308 94.8223H162.291V99.8395H167.308V94.8223Z" fill="white"/>
<path d="M172.179 94.8223H167.162V99.8395H172.179V94.8223Z" fill="white"/>
<path d="M181.922 94.8223H176.904V99.8395H181.922V94.8223Z" fill="white"/>
<path d="M196.535 94.8223H191.518V99.8395H196.535V94.8223Z" fill="white"/>
<path d="M201.406 94.8223H196.389V99.8395H201.406V94.8223Z" fill="white"/>
<path d="M206.277 94.8223H201.26V99.8395H206.277V94.8223Z" fill="white"/>
<path d="M69.8863 99.6934H64.8691V104.711H69.8863V99.6934Z" fill="white"/>
<path d="M74.7574 99.6934H69.7402V104.711H74.7574V99.6934Z" fill="white"/>
<path d="M79.6285 99.6934H74.6113V104.711H79.6285V99.6934Z" fill="white"/>
<path d="M84.4996 99.6934H79.4824V104.711H84.4996V99.6934Z" fill="white"/>
<path d="M89.3707 99.6934H84.3535V104.711H89.3707V99.6934Z" fill="white"/>
<path d="M94.2418 99.6934H89.2246V104.711H94.2418V99.6934Z" fill="white"/>
<path d="M103.984 99.6934H98.9668V104.711H103.984V99.6934Z" fill="white"/>
<path d="M118.597 99.6934H113.58V104.711H118.597V99.6934Z" fill="white"/>
<path d="M138.082 99.6934H133.064V104.711H138.082V99.6934Z" fill="white"/>
<path d="M142.953 99.6934H137.936V104.711H142.953V99.6934Z" fill="white"/>
<path d="M157.566 99.6934H152.549V104.711H157.566V99.6934Z" fill="white"/>
<path d="M162.437 99.6934H157.42V104.711H162.437V99.6934Z" fill="white"/>
<path d="M167.308 99.6934H162.291V104.711H167.308V99.6934Z" fill="white"/>
<path d="M172.179 99.6934H167.162V104.711H172.179V99.6934Z" fill="white"/>
<path d="M177.05 99.6934H172.033V104.711H177.05V99.6934Z" fill="white"/>
<path d="M186.793 99.6934H181.775V104.711H186.793V99.6934Z" fill="white"/>
<path d="M191.664 99.6934H186.646V104.711H191.664V99.6934Z" fill="white"/>
<path d="M201.406 99.6934H196.389V104.711H201.406V99.6934Z" fill="white"/>
<path d="M206.277 99.6934H201.26V104.711H206.277V99.6934Z" fill="white"/>
<path d="M74.7574 104.564H69.7402V109.582H74.7574V104.564Z" fill="white"/>
<path d="M99.1129 104.564H94.0957V109.582H99.1129V104.564Z" fill="white"/>
<path d="M103.984 104.564H98.9668V109.582H103.984V104.564Z" fill="white"/>
<path d="M113.726 104.564H108.709V109.582H113.726V104.564Z" fill="white"/>
<path d="M123.468 104.564H118.451V109.582H123.468V104.564Z" fill="white"/>
<path d="M128.339 104.564H123.322V109.582H128.339V104.564Z" fill="white"/>
<path d="M147.824 104.564H142.807V109.582H147.824V104.564Z" fill="white"/>
<path d="M167.308 104.564H162.291V109.582H167.308V104.564Z" fill="white"/>
<path d="M172.179 104.564H167.162V109.582H172.179V104.564Z" fill="white"/>
<path d="M177.05 104.564H172.033V109.582H177.05V104.564Z" fill="white"/>
<path d="M181.922 104.564H176.904V109.582H181.922V104.564Z" fill="white"/>
<path d="M74.7574 109.436H69.7402V114.453H74.7574V109.436Z" fill="white"/>
<path d="M79.6285 109.436H74.6113V114.453H79.6285V109.436Z" fill="white"/>
<path d="M89.3707 109.436H84.3535V114.453H89.3707V109.436Z" fill="white"/>
<path d="M94.2418 109.436H89.2246V114.453H94.2418V109.436Z" fill="white"/>
<path d="M108.855 109.436H103.838V114.453H108.855V109.436Z" fill="white"/>
<path d="M138.082 109.436H133.064V114.453H138.082V109.436Z" fill="white"/>
<path d="M142.953 109.436H137.936V114.453H142.953V109.436Z" fill="white"/>
<path d="M147.824 109.436H142.807V114.453H147.824V109.436Z" fill="white"/>
<path d="M157.566 109.436H152.549V114.453H157.566V109.436Z" fill="white"/>
<path d="M172.179 109.436H167.162V114.453H172.179V109.436Z" fill="white"/>
<path d="M177.05 109.436H172.033V114.453H177.05V109.436Z" fill="white"/>
<path d="M186.793 109.436H181.775V114.453H186.793V109.436Z" fill="white"/>
<path d="M191.664 109.436H186.646V114.453H191.664V109.436Z" fill="white"/>
<path d="M206.277 109.436H201.26V114.453H206.277V109.436Z" fill="white"/>
<path d="M69.8863 114.307H64.8691V119.324H69.8863V114.307Z" fill="white"/>
<path d="M84.4996 114.307H79.4824V119.324H84.4996V114.307Z" fill="white"/>
<path d="M99.1129 114.307H94.0957V119.324H99.1129V114.307Z" fill="white"/>
<path d="M113.726 114.307H108.709V119.324H113.726V114.307Z" fill="white"/>
<path d="M133.211 114.307H128.193V119.324H133.211V114.307Z" fill="white"/>
<path d="M157.566 114.307H152.549V119.324H157.566V114.307Z" fill="white"/>
<path d="M186.793 114.307H181.775V119.324H186.793V114.307Z" fill="white"/>
<path d="M191.664 114.307H186.646V119.324H191.664V114.307Z" fill="white"/>
<path d="M196.535 114.307H191.518V119.324H196.535V114.307Z" fill="white"/>
<path d="M206.277 114.307H201.26V119.324H206.277V114.307Z" fill="white"/>
<path d="M69.8863 119.178H64.8691V124.195H69.8863V119.178Z" fill="white"/>
<path d="M89.3707 119.178H84.3535V124.195H89.3707V119.178Z" fill="white"/>
<path d="M94.2418 119.178H89.2246V124.195H94.2418V119.178Z" fill="white"/>
<path d="M103.984 119.178H98.9668V124.195H103.984V119.178Z" fill="white"/>
<path d="M108.855 119.178H103.838V124.195H108.855V119.178Z" fill="white"/>
<path d="M118.597 119.178H113.58V124.195H118.597V119.178Z" fill="white"/>
<path d="M123.468 119.178H118.451V124.195H123.468V119.178Z" fill="white"/>
<path d="M128.339 119.178H123.322V124.195H128.339V119.178Z" fill="white"/>
<path d="M152.695 119.178H147.678V124.195H152.695V119.178Z" fill="white"/>
<path d="M167.308 119.178H162.291V124.195H167.308V119.178Z" fill="white"/>
<path d="M172.179 119.178H167.162V124.195H172.179V119.178Z" fill="white"/>
<path d="M177.05 119.178H172.033V124.195H177.05V119.178Z" fill="white"/>
<path d="M181.922 119.178H176.904V124.195H181.922V119.178Z" fill="white"/>
<path d="M186.793 119.178H181.775V124.195H186.793V119.178Z" fill="white"/>
<path d="M191.664 119.178H186.646V124.195H191.664V119.178Z" fill="white"/>
<path d="M201.406 119.178H196.389V124.195H201.406V119.178Z" fill="white"/>
<path d="M206.277 119.178H201.26V124.195H206.277V119.178Z" fill="white"/>
<path d="M69.8863 124.049H64.8691V129.066H69.8863V124.049Z" fill="white"/>
<path d="M79.6285 124.049H74.6113V129.066H79.6285V124.049Z" fill="white"/>
<path d="M84.4996 124.049H79.4824V129.066H84.4996V124.049Z" fill="white"/>
<path d="M89.3707 124.049H84.3535V129.066H89.3707V124.049Z" fill="white"/>
<path d="M94.2418 124.049H89.2246V129.066H94.2418V124.049Z" fill="white"/>
<path d="M99.1129 124.049H94.0957V129.066H99.1129V124.049Z" fill="white"/>
<path d="M103.984 124.049H98.9668V129.066H103.984V124.049Z" fill="white"/>
<path d="M108.855 124.049H103.838V129.066H108.855V124.049Z" fill="white"/>
<path d="M118.597 124.049H113.58V129.066H118.597V124.049Z" fill="white"/>
<path d="M123.468 124.049H118.451V129.066H123.468V124.049Z" fill="white"/>
<path d="M128.339 124.049H123.322V129.066H128.339V124.049Z" fill="white"/>
<path d="M142.953 124.049H137.936V129.066H142.953V124.049Z" fill="white"/>
<path d="M152.695 124.049H147.678V129.066H152.695V124.049Z" fill="white"/>
<path d="M177.05 124.049H172.033V129.066H177.05V124.049Z" fill="white"/>
<path d="M181.922 124.049H176.904V129.066H181.922V124.049Z" fill="white"/>
<path d="M191.664 124.049H186.646V129.066H191.664V124.049Z" fill="white"/>
<path d="M69.8863 128.92H64.8691V133.937H69.8863V128.92Z" fill="white"/>
<path d="M84.4996 128.92H79.4824V133.937H84.4996V128.92Z" fill="white"/>
<path d="M89.3707 128.92H84.3535V133.937H89.3707V128.92Z" fill="white"/>
<path d="M94.2418 128.92H89.2246V133.937H94.2418V128.92Z" fill="white"/>
<path d="M108.855 128.92H103.838V133.937H108.855V128.92Z" fill="white"/>
<path d="M113.726 128.92H108.709V133.937H113.726V128.92Z" fill="white"/>
<path d="M123.468 128.92H118.451V133.937H123.468V128.92Z" fill="white"/>
<path d="M128.339 128.92H123.322V133.937H128.339V128.92Z" fill="white"/>
<path d="M152.695 128.92H147.678V133.937H152.695V128.92Z" fill="white"/>
<path d="M157.566 128.92H152.549V133.937H157.566V128.92Z" fill="white"/>
<path d="M162.437 128.92H157.42V133.937H162.437V128.92Z" fill="white"/>
<path d="M177.05 128.92H172.033V133.937H177.05V128.92Z" fill="white"/>
<path d="M181.922 128.92H176.904V133.937H181.922V128.92Z" fill="white"/>
<path d="M191.664 128.92H186.646V133.937H191.664V128.92Z" fill="white"/>
<path d="M206.277 128.92H201.26V133.937H206.277V128.92Z" fill="white"/>
<path d="M69.8863 133.791H64.8691V138.808H69.8863V133.791Z" fill="white"/>
<path d="M84.4996 133.791H79.4824V138.808H84.4996V133.791Z" fill="white"/>
<path d="M89.3707 133.791H84.3535V138.808H89.3707V133.791Z" fill="white"/>
<path d="M94.2418 133.791H89.2246V138.808H94.2418V133.791Z" fill="white"/>
<path d="M99.1129 133.791H94.0957V138.808H99.1129V133.791Z" fill="white"/>
<path d="M118.597 133.791H113.58V138.808H118.597V133.791Z" fill="white"/>
<path d="M123.468 133.791H118.451V138.808H123.468V133.791Z" fill="white"/>
<path d="M128.339 133.791H123.322V138.808H128.339V133.791Z" fill="white"/>
<path d="M133.211 133.791H128.193V138.808H133.211V133.791Z" fill="white"/>
<path d="M152.695 133.791H147.678V138.808H152.695V133.791Z" fill="white"/>
<path d="M162.437 133.791H157.42V138.808H162.437V133.791Z" fill="white"/>
<path d="M167.308 133.791H162.291V138.808H167.308V133.791Z" fill="white"/>
<path d="M172.179 133.791H167.162V138.808H172.179V133.791Z" fill="white"/>
<path d="M177.05 133.791H172.033V138.808H177.05V133.791Z" fill="white"/>
<path d="M181.922 133.791H176.904V138.808H181.922V133.791Z" fill="white"/>
<path d="M186.793 133.791H181.775V138.808H186.793V133.791Z" fill="white"/>
<path d="M191.664 133.791H186.646V138.808H191.664V133.791Z" fill="white"/>
<path d="M196.535 133.791H191.518V138.808H196.535V133.791Z" fill="white"/>
<path d="M108.855 138.662H103.838V143.68H108.855V138.662Z" fill="white"/>
<path d="M123.468 138.662H118.451V143.68H123.468V138.662Z" fill="white"/>
<path d="M133.211 138.662H128.193V143.68H133.211V138.662Z" fill="white"/>
<path d="M157.566 138.662H152.549V143.68H157.566V138.662Z" fill="white"/>
<path d="M162.437 138.662H157.42V143.68H162.437V138.662Z" fill="white"/>
<path d="M167.308 138.662H162.291V143.68H167.308V138.662Z" fill="white"/>
<path d="M186.793 138.662H181.775V143.68H186.793V138.662Z" fill="white"/>
<path d="M191.664 138.662H186.646V143.68H191.664V138.662Z" fill="white"/>
<path d="M201.406 138.662H196.389V143.68H201.406V138.662Z" fill="white"/>
<path d="M206.277 138.662H201.26V143.68H206.277V138.662Z" fill="white"/>
<path d="M113.726 143.533H108.709V148.55H113.726V143.533Z" fill="white"/>
<path d="M128.339 143.533H123.322V148.55H128.339V143.533Z" fill="white"/>
<path d="M138.082 143.533H133.064V148.55H138.082V143.533Z" fill="white"/>
<path d="M142.953 143.533H137.936V148.55H142.953V143.533Z" fill="white"/>
<path d="M157.566 143.533H152.549V148.55H157.566V143.533Z" fill="white"/>
<path d="M162.437 143.533H157.42V148.55H162.437V143.533Z" fill="white"/>
<path d="M167.308 143.533H162.291V148.55H167.308V143.533Z" fill="white"/>
<path d="M177.05 143.533H172.033V148.55H177.05V143.533Z" fill="white"/>
<path d="M186.793 143.533H181.775V148.55H186.793V143.533Z" fill="white"/>
<path d="M113.726 148.404H108.709V153.422H113.726V148.404Z" fill="white"/>
<path d="M123.468 148.404H118.451V153.422H123.468V148.404Z" fill="white"/>
<path d="M138.082 148.404H133.064V153.422H138.082V148.404Z" fill="white"/>
<path d="M147.824 148.404H142.807V153.422H147.824V148.404Z" fill="white"/>
<path d="M162.437 148.404H157.42V153.422H162.437V148.404Z" fill="white"/>
<path d="M167.308 148.404H162.291V153.422H167.308V148.404Z" fill="white"/>
<path d="M186.793 148.404H181.775V153.422H186.793V148.404Z" fill="white"/>
<path d="M191.664 148.404H186.646V153.422H191.664V148.404Z" fill="white"/>
<path d="M206.277 148.404H201.26V153.422H206.277V148.404Z" fill="white"/>
<path d="M108.855 153.275H103.838V158.293H108.855V153.275Z" fill="white"/>
<path d="M113.726 153.275H108.709V158.293H113.726V153.275Z" fill="white"/>
<path d="M118.597 153.275H113.58V158.293H118.597V153.275Z" fill="white"/>
<path d="M147.824 153.275H142.807V158.293H147.824V153.275Z" fill="white"/>
<path d="M167.308 153.275H162.291V158.293H167.308V153.275Z" fill="white"/>
<path d="M172.179 153.275H167.162V158.293H172.179V153.275Z" fill="white"/>
<path d="M177.05 153.275H172.033V158.293H177.05V153.275Z" fill="white"/>
<path d="M181.922 153.275H176.904V158.293H181.922V153.275Z" fill="white"/>
<path d="M186.793 153.275H181.775V158.293H186.793V153.275Z" fill="white"/>
<path d="M191.664 153.275H186.646V158.293H191.664V153.275Z" fill="white"/>
<path d="M196.535 153.275H191.518V158.293H196.535V153.275Z" fill="white"/>
<path d="M201.406 153.275H196.389V158.293H201.406V153.275Z" fill="white"/>
<path d="M108.855 158.146H103.838V163.164H108.855V158.146Z" fill="white"/>
<path d="M123.468 158.146H118.451V163.164H123.468V158.146Z" fill="white"/>
<path d="M128.339 158.146H123.322V163.164H128.339V158.146Z" fill="white"/>
<path d="M138.082 158.146H133.064V163.164H138.082V158.146Z" fill="white"/>
<path d="M142.953 158.146H137.936V163.164H142.953V158.146Z" fill="white"/>
<path d="M162.437 158.146H157.42V163.164H162.437V158.146Z" fill="white"/>
<path d="M167.308 158.146H162.291V163.164H167.308V158.146Z" fill="white"/>
<path d="M172.179 158.146H167.162V163.164H172.179V158.146Z" fill="white"/>
<path d="M181.922 158.146H176.904V163.164H181.922V158.146Z" fill="white"/>
<path d="M108.855 163.018H103.838V168.035H108.855V163.018Z" fill="white"/>
<path d="M113.726 163.018H108.709V168.035H113.726V163.018Z" fill="white"/>
<path d="M118.597 163.018H113.58V168.035H118.597V163.018Z" fill="white"/>
<path d="M123.468 163.018H118.451V168.035H123.468V163.018Z" fill="white"/>
<path d="M133.211 163.018H128.193V168.035H133.211V163.018Z" fill="white"/>
<path d="M142.953 163.018H137.936V168.035H142.953V163.018Z" fill="white"/>
<path d="M157.566 163.018H152.549V168.035H157.566V163.018Z" fill="white"/>
<path d="M162.437 163.018H157.42V168.035H162.437V163.018Z" fill="white"/>
<path d="M167.308 163.018H162.291V168.035H167.308V163.018Z" fill="white"/>
<path d="M172.179 163.018H167.162V168.035H172.179V163.018Z" fill="white"/>
<path d="M177.05 163.018H172.033V168.035H177.05V163.018Z" fill="white"/>
<path d="M181.922 163.018H176.904V168.035H181.922V163.018Z" fill="white"/>
<path d="M186.793 163.018H181.775V168.035H186.793V163.018Z" fill="white"/>
<path d="M191.664 163.018H186.646V168.035H191.664V163.018Z" fill="white"/>
<path d="M196.535 163.018H191.518V168.035H196.535V163.018Z" fill="white"/>
<path d="M201.406 163.018H196.389V168.035H201.406V163.018Z" fill="white"/>
<path d="M118.597 167.889H113.58V172.906H118.597V167.889Z" fill="white"/>
<path d="M128.339 167.889H123.322V172.906H128.339V167.889Z" fill="white"/>
<path d="M138.082 167.889H133.064V172.906H138.082V167.889Z" fill="white"/>
<path d="M152.695 167.889H147.678V172.906H152.695V167.889Z" fill="white"/>
<path d="M157.566 167.889H152.549V172.906H157.566V167.889Z" fill="white"/>
<path d="M162.437 167.889H157.42V172.906H162.437V167.889Z" fill="white"/>
<path d="M177.05 167.889H172.033V172.906H177.05V167.889Z" fill="white"/>
<path d="M186.793 167.889H181.775V172.906H186.793V167.889Z" fill="white"/>
<path d="M201.406 167.889H196.389V172.906H201.406V167.889Z" fill="white"/>
<path d="M113.726 172.76H108.709V177.777H113.726V172.76Z" fill="white"/>
<path d="M118.597 172.76H113.58V177.777H118.597V172.76Z" fill="white"/>
<path d="M123.468 172.76H118.451V177.777H123.468V172.76Z" fill="white"/>
<path d="M133.211 172.76H128.193V177.777H133.211V172.76Z" fill="white"/>
<path d="M138.082 172.76H133.064V177.777H138.082V172.76Z" fill="white"/>
<path d="M157.566 172.76H152.549V177.777H157.566V172.76Z" fill="white"/>
<path d="M162.437 172.76H157.42V177.777H162.437V172.76Z" fill="white"/>
<path d="M172.179 172.76H167.162V177.777H172.179V172.76Z" fill="white"/>
<path d="M186.793 172.76H181.775V177.777H186.793V172.76Z" fill="white"/>
<path d="M196.535 172.76H191.518V177.777H196.535V172.76Z" fill="white"/>
</mask>
<g mask="url(#mask0_1_1537)">
<path d="M215.873 26.627H55.1269V187.373H215.873V26.627Z" fill="black"/>
</g>
<path d="M75.8291 70.4668H88.2504C94.0957 70.4668 98.9668 65.5957 98.9668 59.7504V47.3291C98.9668 41.2402 94.0957 36.3691 88.0068 36.3691H75.5855C69.7402 36.3691 64.8691 41.2402 64.8691 47.0856V59.5068C64.8691 65.5957 69.7402 70.4668 75.8291 70.4668ZM94.0957 48.0598V58.7762C94.0957 62.4295 90.9295 65.5957 87.2762 65.5957H76.5597C72.6629 65.5957 69.7402 62.6731 69.7402 58.7762V48.0598C69.7402 44.4064 72.9064 41.2402 76.5597 41.2402H87.2762C91.173 41.2402 94.0957 44.1629 94.0957 48.0598Z" fill="black"/>
<path d="M89.2246 50.2518V56.8277C89.2246 58.7762 87.2761 60.7246 85.0842 60.7246H78.7517C76.3162 60.7246 74.6113 59.0197 74.6113 56.5842V50.2518C74.6113 48.0598 76.5597 46.1113 78.7517 46.1113H85.3277C87.5197 46.1113 89.2246 47.8162 89.2246 50.2518Z" fill="black"/>
<path d="M182.993 70.4668H195.414C201.26 70.4668 206.131 65.5957 206.131 59.7504V47.3291C206.131 41.2402 201.26 36.3691 195.171 36.3691H182.75C176.904 36.3691 172.033 41.2402 172.033 47.0856V59.5068C172.033 65.5957 176.904 70.4668 182.993 70.4668ZM201.26 48.0598V58.7762C201.26 62.4295 198.094 65.5957 194.44 65.5957H183.724C179.827 65.5957 176.904 62.6731 176.904 58.7762V48.0598C176.904 44.4064 180.071 41.2402 183.724 41.2402H194.44C198.337 41.2402 201.26 44.1629 201.26 48.0598Z" fill="black"/>
<path d="M196.389 50.2518V56.8277C196.389 58.7762 194.44 60.7246 192.248 60.7246H185.916C183.48 60.7246 181.775 59.0197 181.775 56.5842V50.2518C181.775 48.0598 183.724 46.1113 185.916 46.1113H192.492C194.684 46.1113 196.389 47.8162 196.389 50.2518Z" fill="black"/>
<path d="M75.8291 177.631H88.2504C94.0957 177.631 98.9668 172.76 98.9668 166.914V154.493C98.9668 148.404 94.0957 143.533 88.0068 143.533H75.5855C69.7402 143.533 64.8691 148.404 64.8691 154.25V166.671C64.8691 172.76 69.7402 177.631 75.8291 177.631ZM94.0957 155.224V165.94C94.0957 169.594 90.9295 172.76 87.2762 172.76H76.5597C72.6629 172.76 69.7402 169.837 69.7402 165.94V155.224C69.7402 151.571 72.9064 148.404 76.5597 148.404H87.2762C91.173 148.404 94.0957 151.327 94.0957 155.224Z" fill="black"/>
<path d="M89.2246 157.416V163.992C89.2246 165.94 87.2761 167.889 85.0842 167.889H78.7517C76.3162 167.889 74.6113 166.184 74.6113 163.748V157.416C74.6113 155.224 76.5597 153.275 78.7517 153.275H85.3277C87.5197 153.275 89.2246 154.98 89.2246 157.416Z" fill="black"/>
</g>
<defs>
<clipPath id="clip0_1_1537">
<rect width="160.746" height="160.746" fill="white" transform="translate(55.1269 26.627)"/>
</clipPath>
</defs>
</svg>
