<svg width="32" height="33" viewBox="0 0 32 33" fill="none" xmlns="http://www.w3.org/2000/svg">
<rect x="0.25" y="0.421875" width="31.5" height="31.5" rx="15.75" fill="#242323"/>
<rect x="0.25" y="0.421875" width="31.5" height="31.5" rx="15.75" stroke="#EBEBEB" stroke-width="0.5"/>
<path d="M17.5234 9.94108C18.2057 9.93066 18.8828 9.93587 19.5599 9.93066C19.6016 10.7275 19.888 11.54 20.4713 12.1025C21.0547 12.6807 21.8776 12.9463 22.6797 13.0348V15.1338C21.9297 15.1077 21.1745 14.9515 20.4922 14.6286C20.1953 14.4932 19.9193 14.3213 19.6484 14.1442C19.6432 15.665 19.6536 17.1859 19.638 18.7015C19.5963 19.4307 19.3568 20.1546 18.9349 20.7536C18.2526 21.7536 17.0703 22.4046 15.8568 22.4255C15.112 22.4671 14.3672 22.264 13.7318 21.889C12.6797 21.2692 11.9401 20.1338 11.8307 18.915C11.8203 18.6546 11.8151 18.3942 11.8255 18.139C11.9193 17.1494 12.4089 16.2015 13.1693 15.5557C14.0339 14.8057 15.2422 14.4463 16.3724 14.6598C16.3828 15.4307 16.3516 16.2015 16.3516 16.9723C15.8359 16.8057 15.2318 16.8525 14.7786 17.165C14.4505 17.3786 14.2005 17.7067 14.0703 18.0765C13.9609 18.3421 13.9922 18.6338 13.9974 18.915C14.1224 19.7692 14.9453 20.488 15.8203 20.4098C16.4036 20.4046 16.9609 20.0661 17.263 19.5713C17.362 19.3994 17.4714 19.2223 17.4766 19.0192C17.5286 18.0869 17.5078 17.1598 17.513 16.2275C17.5182 14.1286 17.5078 12.0348 17.5234 9.94108Z" fill="#FDFDFD"/>
</svg>
