<svg width="64" height="64" viewBox="0 0 64 64" fill="none" xmlns="http://www.w3.org/2000/svg">
<path d="M56.1097 38.7721L34.2217 56.2106L22.0312 62.3056L30.6987 55.3999L43.9193 44.8673C44.669 44.2883 44.8153 43.2765 44.352 41.838C43.8827 40.3995 43.072 39.345 41.92 38.6807L31.613 32.7256L43.8034 26.6304L54.1105 32.5854C55.2625 33.2498 56.0732 34.3043 56.5425 35.7428C57.0057 37.1812 56.8594 38.193 56.1097 38.7721Z" stroke="#BBA944" stroke-linecap="round" stroke-linejoin="round"/>
<path d="M34.2217 56.2104C34.0328 56.3567 33.8316 56.4604 33.6122 56.5152L34.2217 56.2104Z" stroke="#BBA944" stroke-linecap="round" stroke-linejoin="round"/>
<path d="M43.9192 44.8675L30.6986 55.4L22.0312 62.3057C21.5436 62.6897 20.9463 62.775 20.2392 62.5678C19.5261 62.3605 18.8434 61.8912 18.1729 61.1476C17.5086 60.4103 16.9905 59.5631 16.6126 58.6061C16.2347 57.6492 16.0883 56.7654 16.1797 55.9547L18.307 40.3143L10.0602 35.5539C8.99349 34.9383 8.20722 33.9326 7.70131 32.549C7.18931 31.1593 7.24414 30.1353 7.86586 29.477L27.7546 8.13756C27.8643 8.02175 27.9801 7.93032 28.1081 7.85108L28.1509 7.8267L28.3336 7.74137C28.6628 7.59508 29.0469 7.5707 29.4857 7.64994C30.1928 7.77794 30.9241 8.2107 31.6799 8.95432C32.0091 9.27737 32.2956 9.6187 32.5455 9.98442C32.8747 10.4537 33.1429 10.9657 33.344 11.5143C33.6975 12.4835 33.8316 13.3734 33.7401 14.1901L31.6129 32.7257L41.92 38.6808C43.072 39.3452 43.8827 40.3997 44.352 41.8381C44.8152 43.2766 44.6689 44.2884 43.9192 44.8675Z" fill="#F4DC57" stroke="#BBA944" stroke-linecap="round" stroke-linejoin="round"/>
<path d="M45.9306 8.0948L43.8034 26.6304L31.6129 32.7257L33.7401 14.19C33.8316 13.3733 33.6975 12.4834 33.3439 11.5142C33.1428 10.9657 32.8746 10.4537 32.5455 9.98432C32.2956 9.61861 32.0091 9.27727 31.6799 8.95423C30.9241 8.21061 30.1927 7.77784 29.4856 7.64984C29.0468 7.57061 28.6628 7.59499 28.3336 7.74127L40.3656 1.7192C40.7375 1.51196 41.1702 1.4571 41.6761 1.55462C42.3832 1.68262 43.1146 2.11539 43.8704 2.85901C44.6201 3.59653 45.1748 4.44986 45.5344 5.41901C45.8879 6.38813 46.022 7.27803 45.9306 8.0948Z" stroke="#BBA944" stroke-linecap="round" stroke-linejoin="round"/>
<path d="M40.4327 1.68262L40.3657 1.71919" stroke="#BBA944" stroke-linecap="round" stroke-linejoin="round"/>
</svg>
