<svg width="32" height="33" viewBox="0 0 32 33" fill="none" xmlns="http://www.w3.org/2000/svg">
<rect x="0.25" y="0.421875" width="31.5" height="31.5" rx="15.75" fill="#242323"/>
<rect x="0.25" y="0.421875" width="31.5" height="31.5" rx="15.75" stroke="#EBEBEB" stroke-width="0.5"/>
<g clip-path="url(#clip0_1_1870)">
<path d="M16.7898 11.9258H16.8594C17.5016 11.9281 20.7555 11.9516 21.6328 12.1875C21.898 12.2595 22.1397 12.3999 22.3337 12.5945C22.5277 12.7892 22.6672 13.0314 22.7383 13.2969C22.8172 13.5938 22.8727 13.9867 22.9102 14.3922L22.918 14.4734L22.9352 14.6766L22.9414 14.7578C22.9922 15.4719 22.9984 16.1406 22.9992 16.2867V16.3453C22.9984 16.4969 22.9914 17.2109 22.9352 17.9547L22.9289 18.0367L22.9219 18.118C22.8828 18.5648 22.825 19.0086 22.7383 19.3352C22.6672 19.6006 22.5277 19.8428 22.3337 20.0375C22.1397 20.2322 21.898 20.3725 21.6328 20.4445C20.7266 20.6883 17.282 20.7055 16.8047 20.7063H16.6937C16.4523 20.7063 15.4539 20.7016 14.407 20.6656L14.2742 20.6609L14.2062 20.6578L14.0727 20.6523L13.9391 20.6469C13.0719 20.6086 12.2461 20.5469 11.8656 20.4438C11.6005 20.3718 11.3589 20.2316 11.1649 20.037C10.9709 19.8425 10.8313 19.6005 10.7602 19.3352C10.6734 19.0094 10.6156 18.5648 10.5766 18.118L10.5703 18.0359L10.5641 17.9547C10.5253 17.4253 10.5039 16.8948 10.5 16.3641L10.5 16.268C10.5016 16.1 10.5078 15.5195 10.55 14.8789L10.5555 14.7984L10.5578 14.7578L10.5641 14.6766L10.5813 14.4734L10.5891 14.3922C10.6266 13.9867 10.682 13.593 10.7609 13.2969C10.832 13.0314 10.9715 12.7892 11.1655 12.5945C11.3595 12.3999 11.6012 12.2595 11.8664 12.1875C12.2469 12.0859 13.0727 12.0234 13.9398 11.9844L14.0727 11.9789L14.207 11.9742L14.2742 11.9719L14.4078 11.9664C15.1513 11.9425 15.8952 11.9292 16.6391 11.9266L16.7898 11.9258ZM15.5 14.4336V18.1977L18.7477 16.3164L15.5 14.4336Z" fill="#FDFDFD"/>
</g>
<defs>
<clipPath id="clip0_1_1870">
<rect width="12.5" height="12.5" fill="white" transform="translate(10.5 10.3643)"/>
</clipPath>
</defs>
</svg>
