<svg width="52" height="20" viewBox="0 0 52 20" fill="none" xmlns="http://www.w3.org/2000/svg">
<path d="M17.9154 8.09073L4.26717 0.289302C3.93284 0.098612 3.55432 -0.000973003 3.16944 0.000504485C2.78456 0.00198197 2.40681 0.10447 2.07396 0.297722C1.74112 0.490974 1.46483 0.768217 1.27273 1.10173C1.08063 1.43525 0.979454 1.81335 0.979309 2.19823V17.8011C0.979276 18.1862 1.08042 18.5646 1.27261 18.8984C1.4648 19.2322 1.74129 19.5096 2.07441 19.7029C2.40753 19.8962 2.78559 19.9986 3.17073 19.9998C3.55587 20.0011 3.93458 19.9011 4.26895 19.71L17.915 11.9082C18.2515 11.7159 18.5311 11.4381 18.7256 11.1029C18.9201 10.7677 19.0225 10.387 19.0225 9.99948C19.0225 9.61194 18.9201 9.23129 18.7256 8.89609C18.5311 8.56089 18.2518 8.28305 17.9154 8.09073ZM12.0011 6.24609L10.1272 8.8568L5.64467 2.61287L12.0011 6.24609ZM3.09002 18.6586C2.96745 18.6476 2.84869 18.6103 2.74181 18.5493C2.61064 18.4729 2.50181 18.3634 2.42617 18.2318C2.35053 18.1002 2.31073 17.9511 2.31074 17.7993V2.19823C2.31026 1.9839 2.3897 1.77709 2.53354 1.6182C2.67737 1.45931 2.87528 1.35974 3.08859 1.33895L9.30645 9.99966L3.09002 18.6586ZM5.64467 17.3864L10.1272 11.1425L12.0011 13.7529L5.64467 17.3864ZM17.2518 10.7507L13.1647 13.0879L10.9479 9.99966L13.165 6.91145L17.2536 9.24966C17.386 9.32531 17.4961 9.43463 17.5726 9.56653C17.6492 9.69843 17.6895 9.84823 17.6895 10.0007C17.6895 10.1532 17.6492 10.303 17.5726 10.4349C17.4961 10.5668 17.386 10.6762 17.2536 10.7518L17.2518 10.7507Z" fill="#242323"/>
<line x1="26.25" y1="2.5" x2="26.25" y2="17.5" stroke="#474646" stroke-width="0.5"/>
<path d="M45.7491 0C44.5639 0.141967 43.4773 0.730205 42.7105 1.645C42.048 2.45107 41.503 3.64857 41.7155 4.8125C42.3115 4.799 42.8967 4.65116 43.4276 4.38C43.9585 4.10884 44.4213 3.72136 44.7816 3.24643C45.1494 2.79606 45.4242 2.27727 45.5903 1.72005C45.7563 1.16282 45.8103 0.578211 45.7491 0Z" fill="#242323"/>
<path d="M49.9627 6.70972C48.9391 5.42615 47.5002 4.68115 46.1412 4.68115C44.3477 4.68115 43.5887 5.5383 42.3427 5.5383C41.0569 5.5383 40.0816 4.68115 38.5302 4.68115C37.0066 4.68115 35.3841 5.61222 34.3552 7.20472C32.9091 9.44722 33.1566 13.6633 35.5002 17.2547C36.3387 18.5404 37.4587 19.9847 38.9237 19.9972C40.2273 20.0097 40.5948 19.1612 42.3612 19.1522C44.1277 19.1433 44.4623 20.0094 45.7637 19.9947C47.2298 19.9837 48.4112 18.3822 49.2498 17.0972C49.7564 16.3319 50.1887 15.5198 50.5409 14.6722C47.1502 13.3837 46.6066 8.55972 49.9627 6.70972Z" fill="#242323"/>
</svg>
