<svg width="128" height="28" viewBox="0 0 128 28" fill="none" xmlns="http://www.w3.org/2000/svg">
<path d="M33.3636 19.8443V8.77921H38.5387C40.9494 8.77921 42.2525 10.4078 42.2525 12.3435C42.2525 14.2699 40.9215 15.8985 38.5387 15.8985H35.7185V19.8443H33.3636ZM39.8604 12.3435C39.8604 11.4129 39.1437 10.8545 38.2223 10.8545H35.7371V13.8232H38.213C39.1437 13.8232 39.8604 13.2555 39.8604 12.3435Z" fill="#FDFDFD"/>
<path d="M48.1815 19.8443C48.1164 19.6303 48.0698 19.3883 48.0512 19.1184C47.7999 19.4069 47.4555 19.6396 47.0367 19.8071C46.6178 19.9746 46.1338 20.0677 45.5754 20.0677C44.6353 20.0677 43.9465 19.8629 43.5091 19.4441C43.0716 19.0254 42.8575 18.4856 42.8575 17.8249C42.8575 17.2386 42.9506 16.7733 43.1367 16.4196C43.3229 16.0753 43.5835 15.7961 43.9186 15.6007C44.2537 15.4052 44.6446 15.2563 45.1007 15.1633C45.5568 15.0702 46.0594 14.9865 46.5992 14.9027C47.1391 14.8283 47.5021 14.7259 47.6975 14.5956C47.8837 14.4653 47.9768 14.2606 47.9768 13.9721C47.9768 13.7022 47.8558 13.4975 47.6045 13.3486C47.3531 13.1997 47.0181 13.1252 46.5992 13.1252C46.1059 13.1252 45.7429 13.2369 45.5288 13.4602C45.3147 13.6836 45.1751 13.9721 45.1193 14.335H43.1088C43.1181 13.9162 43.1926 13.5254 43.3136 13.1717C43.4439 12.8181 43.6487 12.511 43.9279 12.2597C44.2071 12.0085 44.5794 11.813 45.0262 11.6734C45.4823 11.5339 46.0314 11.4687 46.683 11.4687C47.3252 11.4687 47.8651 11.5432 48.3118 11.6828C48.7586 11.8223 49.1123 12.0364 49.3915 12.3063C49.6615 12.5762 49.8569 12.9112 49.9779 13.3206C50.0989 13.7208 50.1641 14.1768 50.1641 14.6887V19.8443H48.1815ZM48.0326 15.8426C47.9209 15.9543 47.7627 16.0381 47.5486 16.1125C47.3345 16.1777 47.0367 16.2521 46.6364 16.3266C46.0128 16.4475 45.594 16.6057 45.3613 16.7919C45.1286 16.978 45.0169 17.2479 45.0169 17.6015C45.0169 18.2064 45.3613 18.5135 46.0594 18.5135C46.3386 18.5135 46.5899 18.467 46.8319 18.3739C47.0739 18.2809 47.2787 18.1506 47.4462 17.9924C47.6138 17.8342 47.7534 17.648 47.8651 17.4247C47.9675 17.2106 48.0233 16.978 48.0233 16.736L48.0326 15.8426Z" fill="#FDFDFD"/>
<path d="M51.5695 21.901L52.5189 20.3934C53.096 21.0913 54.0826 21.3705 54.9296 21.3705C56.2885 21.3705 57.089 20.4399 57.089 19.3139V18.4856C56.5398 19.0812 55.5811 19.6954 54.2688 19.6954C52.5096 19.6954 51.6812 18.7369 51.6812 17.1734V11.8317H53.7848V16.3452C53.7848 17.4526 54.3618 17.8249 55.2647 17.8249C56.0745 17.8249 56.726 17.3782 57.089 16.9129V11.8317H59.1925V19.3139C59.1925 21.7242 57.4799 23.0922 54.9296 23.0922C53.58 23.0922 52.5003 22.7106 51.5695 21.901ZM65.9406 19.8443V17.555H60.6445V15.6937L65.0378 8.77921H68.2862V15.4797H69.7103V17.555H68.2862V19.8443H65.9406ZM65.9406 10.8638L62.9529 15.4797H65.9406V10.8638ZM80.8609 19.8443V11.8596L77.7428 19.8443H76.7097L73.5916 11.8596V19.8443H71.2367V8.77921H74.541L77.2309 15.6937L79.9208 8.77921H83.2437V19.8443H80.8609ZM84.8632 15.824C84.8632 13.4975 86.5852 11.6269 89.0145 11.6269C91.4252 11.6269 93.0261 13.423 93.0261 16.0195V16.5127H87.0692C87.2181 17.4898 88.0186 18.3088 89.3775 18.3088C90.057 18.3088 90.9877 18.0296 91.4997 17.5271L92.449 18.923C91.6486 19.6489 90.392 20.0304 89.1448 20.0304C86.7062 20.0397 84.8632 18.4018 84.8632 15.824ZM89.0145 13.3579C87.7021 13.3579 87.1436 14.2699 87.0599 15.0702H91.0063C90.9319 14.2978 90.4013 13.3579 89.0145 13.3579ZM106.513 19.8443L105.815 17.9738H101.068L100.37 19.8443H97.6986L101.962 8.77921H104.912L109.175 19.8443H106.513ZM103.451 11.1337L101.729 15.8985H105.182L103.451 11.1337ZM112.274 18.8113V22.8967H110.171V11.8317H112.274V12.846C112.889 12.0643 113.764 11.6362 114.75 11.6362C116.807 11.6362 118.306 13.1624 118.306 15.8333C118.306 18.5042 116.817 20.049 114.75 20.049C113.801 20.0397 112.935 19.6489 112.274 18.8113ZM116.128 15.824C116.128 14.4467 115.299 13.4975 114.089 13.4975C113.41 13.4975 112.647 13.879 112.284 14.4095V17.2293C112.628 17.7411 113.41 18.1599 114.089 18.1599C115.29 18.1692 116.128 17.22 116.128 15.824ZM121.945 18.8113V22.8967H119.842V11.8317H121.945V12.846C122.56 12.0643 123.434 11.6362 124.421 11.6362C126.478 11.6362 127.977 13.1624 127.977 15.8333C127.977 18.5042 126.487 20.049 124.421 20.049C123.472 20.0397 122.615 19.6489 121.945 18.8113ZM125.799 15.824C125.799 14.4467 124.97 13.4975 123.76 13.4975C123.081 13.4975 122.318 13.879 121.955 14.4095V17.2293C122.299 17.7411 123.081 18.1599 123.76 18.1599C124.97 18.1692 125.799 17.22 125.799 15.824Z" fill="#FDFDFD"/>
<g opacity="0.78">
<path d="M19.914 27.615H7.37646C3.3183 27.615 0.0233612 24.3206 0.0233612 20.2631V7.73692C0.0233612 3.6794 3.3183 0.385002 7.37646 0.385002H19.914C23.9721 0.385002 27.2671 3.6794 27.2671 7.73692V20.2724C27.2671 24.3299 23.9721 27.615 19.914 27.615Z" fill="#7AC52D"/>
<path opacity="0.78" d="M3.99777 20.2445V12.8088C3.99777 12.4179 4.24908 12.0736 4.61208 11.9526L7.84186 10.8638V14.819C7.84186 15.3122 8.14902 15.7496 8.60509 15.9264C9.71271 16.3452 11.6766 17.0897 12.2072 17.2665C12.8029 17.4619 12.7284 18.1413 12.6633 18.4111C12.626 18.4298 12.5981 18.4484 12.5609 18.467L5.20778 21.1006C4.74239 21.2682 4.22116 21.0262 4.05362 20.5609C4.01639 20.4585 3.99777 20.3562 3.99777 20.2445Z" fill="white"/>
<path opacity="0.53" d="M7.84186 10.8645V8.0256C7.84186 7.37406 8.3724 6.84352 9.02394 6.84352C9.16355 6.84352 9.29386 6.87144 9.42417 6.91798L12.6819 8.09076L12.7377 8.20245C12.9146 8.68645 12.6726 9.21699 12.1886 9.39384C12.1793 9.39384 12.1699 9.40315 12.1513 9.40315L7.84186 10.8645Z" fill="white"/>
<path d="M12.6819 8.09055L12.7377 8.20222C12.9146 8.68615 12.6726 9.21661 12.1886 9.39342C12.1793 9.39342 12.1699 9.40273 12.1513 9.40273L7.84186 10.8638V14.8189C7.84186 15.3122 8.14901 15.7496 8.60509 15.9264C9.71271 16.3452 11.6766 17.0897 12.2072 17.2665C12.8029 17.4619 12.7284 18.1413 12.6633 18.4111C13.1473 18.132 13.4544 17.6387 13.4916 17.0804V9.33758C13.4916 8.98395 13.352 8.64892 13.1193 8.38835C12.9983 8.25806 12.8494 8.14639 12.6819 8.09055Z" fill="white"/>
<path opacity="0.78" d="M23.2927 7.75553V15.1912C23.2927 15.5821 23.0507 15.9264 22.6784 16.0474L19.4486 17.1362V13.1811C19.4486 12.6878 19.1414 12.2504 18.6854 12.0736C17.5871 11.6548 15.6138 10.9103 15.0833 10.7335C14.4876 10.5381 14.562 9.85874 14.6272 9.58885C14.6644 9.57024 14.6924 9.55163 14.7296 9.53302L22.0827 6.89936C22.5574 6.73184 23.0693 6.97381 23.2368 7.44842C23.2741 7.54149 23.2927 7.65316 23.2927 7.75553Z" fill="white"/>
<path d="M13.7895 11.9806V18.4484C13.7802 17.313 13.7895 13.7673 13.7895 11.9806Z" fill="white"/>
<path opacity="0.53" d="M19.4486 17.1362V19.975C19.4486 20.6266 18.918 21.1571 18.2665 21.1571C18.1269 21.1571 17.9966 21.1292 17.8663 21.0827L14.6179 19.9099L14.562 19.7982C14.3852 19.3142 14.6272 18.7837 15.1112 18.6068C15.1205 18.6068 15.1298 18.5975 15.1484 18.5975L19.4486 17.1362Z" fill="white"/>
<path d="M14.6179 19.9095L14.562 19.7978C14.3852 19.3138 14.6272 18.7834 15.1112 18.6066C15.1205 18.6066 15.1298 18.5973 15.1484 18.5973L19.4579 17.1362V13.1811C19.4579 12.6878 19.1507 12.2504 18.6947 12.0736C17.5963 11.6548 15.6231 10.9103 15.0926 10.7335C14.4969 10.5381 14.5713 9.85873 14.6365 9.58885C14.1525 9.86804 13.8453 10.3706 13.8081 10.9196V18.6531C13.8081 19.0067 13.9384 19.3418 14.1804 19.6023C14.2921 19.7419 14.4503 19.8443 14.6179 19.9095Z" fill="white"/>
</g>
</svg>
